<?xml version="1.0" encoding="UTF-8" standalone="no"?>
<!-- Created with Inkscape (http://www.inkscape.org/) -->

<svg
   width="135.99609"
   height="40"
   viewBox="0 0 35.9823 10.583333"
   version="1.1"
   id="svg1"
   inkscape:export-filename="verification_cover.svg"
   inkscape:export-xdpi="100"
   inkscape:export-ydpi="100"
   inkscape:version="1.3.2 (1:1.3.2+202311252150+091e20ef0f)"
   sodipodi:docname="cover.svg"
   xml:space="preserve"
   xmlns:inkscape="http://www.inkscape.org/namespaces/inkscape"
   xmlns:sodipodi="http://sodipodi.sourceforge.net/DTD/sodipodi-0.dtd"
   xmlns="http://www.w3.org/2000/svg"
   xmlns:svg="http://www.w3.org/2000/svg"><sodipodi:namedview
     id="namedview1"
     pagecolor="#ffffff"
     bordercolor="#666666"
     borderopacity="1.0"
     inkscape:showpageshadow="2"
     inkscape:pageopacity="0.0"
     inkscape:pagecheckerboard="0"
     inkscape:deskcolor="#d1d1d1"
     inkscape:document-units="px"
     inkscape:zoom="0.11313708"
     inkscape:cx="-16236.939"
     inkscape:cy="-7627.9144"
     inkscape:window-width="1868"
     inkscape:window-height="1016"
     inkscape:window-x="52"
     inkscape:window-y="27"
     inkscape:window-maximized="1"
     inkscape:current-layer="layer1"
     inkscape:export-bgcolor="#ffffff00" /><defs
     id="defs1" /><g
     inkscape:label="Layer 1"
     inkscape:groupmode="layer"
     id="layer1"
     transform="translate(10117.516,3175.0027)"><path
       id="rect1"
       style="fill:#000000;stroke-width:0.0366805"
       d="m -10117.516,-3175.0026 v 5.1858 h 8.467 v 0.2117 0 1.7462 h 9.63 v 3.4396 h 17.886 v -5.1858 h -8.467 v -1.9579 h -9.63 v -0.2117 -3.2279 z m 18.097,0 v 3.2279 h 9.631 v 1.9579 h 8.255 v -5.1858 z m 4.657,3.9688 0.635,1.0583 h -0.529 l -0.106,-0.1764 v 0.1764 0.5291 0.5292 0.5292 h -0.529 v -0.5292 -0.5292 -0.5291 -0.5292 -0.5291 z m -13.758,0 h 0.529 0.529 0.529 0.529 v 0.5291 0.5292 0.5292 0.5291 0.5292 h -0.529 v -0.5292 -0.5291 -0.5292 -0.5292 h -0.529 -0.529 v 0.5292 0.5292 0.5291 0.5292 h -0.529 v -0.5292 -0.5291 -0.5292 -0.5292 z m 3.175,0 h 0.529 0.529 l 0.529,0.5291 h -0.529 -0.529 -0.529 -0.529 z m 2.645,0 h 0.53 0.529 l 0.529,0.5291 h -0.529 -0.529 -0.53 -0.529 z m 2.117,0 h 0.529 0.529 0.53 0.529 v 0.5291 0.5292 0.5292 0.5291 0.5292 h -0.529 -0.53 -0.529 -0.529 v -0.5292 -0.5291 -0.5292 -0.5292 z m 2.646,0 h 0.529 v 0.5291 0.5292 0.5292 0.5291 h 0.529 0.529 v -0.5291 0 -0.5292 -0.5292 -0.5291 h 0.53 v 0.5291 0.5292 0.5292 0 0.5291 l -0.53,0.5292 h -0.529 -0.529 l -0.529,-0.5292 v -0.5291 -0.5292 -0.5292 z m 5.292,0 h 0.529 0.529 0.529 0.529 v 0.5291 h -0.529 -0.529 -0.529 -0.529 z m -1.059,0 h 0.529 v 0.5291 0.5292 0.5292 0.5291 0.5292 h -0.529 v 0 0 l -0.635,-1.0583 h 0.529 l 0.106,0.1763 v -0.1763 -0.5292 -0.5292 z m -6.35,0.5291 v 0.5292 0.5292 0.5291 h 0.529 0.53 v -0.5291 -0.5292 -0.5292 h -0.53 z m -5.82,0 h 0.529 v 0.5292 0.5292 0.5291 h 0.529 0.529 0.529 l -0.529,0.5292 h -0.529 -0.529 l -0.529,-0.5292 v -0.5291 -0.5292 z m 2.645,0 h 0.529 v 0.5292 0.5292 0.5291 h 0.53 0.529 0.529 l -0.529,0.5292 h -0.529 -0.53 l -0.529,-0.5292 v -0.5291 -0.5292 z m 6.086,0.2646 h 0.529 v 0.5292 h -0.529 z m -10.584,0.2646 h 0.53 v 0.5292 h -0.53 z m 7.938,0 h 0.529 v 0.5292 h -0.529 z m 7.937,0 h 0.529 v 0.5292 0.5291 0.5292 h -0.529 v -0.5292 -0.5291 z m -12.964,0 h 0.529 v 0.5292 h -0.529 z m 2.646,0 h 0.529 v 0.5292 h -0.529 z m -15.346,0.3704 v 5.1858 h 17.886 v -3.2279 h -9.631 v -0.2117 -1.7462 z"
       inkscape:export-filename="account-settings-cover-black.svg"
       inkscape:export-xdpi="100"
       inkscape:export-ydpi="100" /></g></svg>
