<?xml version="1.0" encoding="UTF-8" standalone="no"?>
<!-- Created with Inkscape (http://www.inkscape.org/) -->

<svg
   width="116"
   height="40"
   viewBox="0 0 30.691667 10.583333"
   version="1.1"
   id="svg1"
   inkscape:export-filename="verification_cover.svg"
   inkscape:export-xdpi="100"
   inkscape:export-ydpi="100"
   inkscape:version="1.3.2 (1:1.3.2+202311252150+091e20ef0f)"
   sodipodi:docname="cover.svg"
   xml:space="preserve"
   xmlns:inkscape="http://www.inkscape.org/namespaces/inkscape"
   xmlns:sodipodi="http://sodipodi.sourceforge.net/DTD/sodipodi-0.dtd"
   xmlns="http://www.w3.org/2000/svg"
   xmlns:svg="http://www.w3.org/2000/svg"><sodipodi:namedview
     id="namedview1"
     pagecolor="#ffffff"
     bordercolor="#666666"
     borderopacity="1.0"
     inkscape:showpageshadow="2"
     inkscape:pageopacity="0.0"
     inkscape:pagecheckerboard="0"
     inkscape:deskcolor="#d1d1d1"
     inkscape:document-units="px"
     inkscape:zoom="0.08"
     inkscape:cx="-26525"
     inkscape:cy="-2487.5"
     inkscape:window-width="1868"
     inkscape:window-height="1016"
     inkscape:window-x="52"
     inkscape:window-y="27"
     inkscape:window-maximized="1"
     inkscape:current-layer="layer1"
     inkscape:export-bgcolor="#ffffff00" /><defs
     id="defs1" /><g
     inkscape:label="Layer 1"
     inkscape:groupmode="layer"
     id="layer1"
     transform="translate(6319.3081,1884.5416)"><path
       id="rect9-5"
       style="fill:#ffffff;stroke-width:0.016274"
       d="m -6319.3082,-1884.5415 v 5.1858 h 7.1438 v 1.9579 h 8.3079 v 3.4396 h 15.24 v -5.1858 h -6.9321 -0.2117 v -0.2117 -1.7462 h -8.3079 v -0.2117 -3.2279 z m 15.4517,0 v 3.2279 h 8.3079 v 0.2117 0 1.7462 h 6.9321 v -5.1858 z m -7.7788,3.9687 h 0.5292 0.5292 0.5291 0.5292 v 0.5292 0.5292 0.5291 0.5292 0.5292 h -0.5292 v -0.5292 -0.5292 -0.5291 -0.5292 h -0.5291 -0.5292 v 0.5292 0.5291 0.5292 0.5292 h -0.5292 v -0.5292 -0.5292 -0.5291 -0.5292 z m 2.6459,0 h 0.5291 v 0.5292 0.5292 0.5291 l 0.5292,0.7056 0.5292,-0.7056 v -0.5291 -0.5292 -0.5292 h 0.5291 v 0.5292 0.5292 0.5291 0 l -0.7937,1.0584 h -0.5292 l -0.7937,-1.0584 v -0.5291 -0.5292 z m 2.6459,0 h 0.5292 0.529 0.5292 0.5292 v 0.5292 0.5292 0.5291 0.5292 0.5292 h -0.5292 v -0.5292 -0.5292 -0.5291 -0.5292 h -0.5292 -0.529 v 0.5292 0.5291 0.5292 0.5292 h -0.5292 v -0.5292 -0.5292 -0.5291 -0.5292 z m 2.6458,0 h 0.5292 0.5292 0.529 0.5292 v 0.5292 h -0.5292 -0.529 -0.5292 -0.5292 z m 2.6459,0 h 0.5291 0.5292 0.5292 0.5291 v 0.5292 0.5292 0.5291 0.5292 0.5292 h -0.5291 v -0.5292 -0.5292 -0.5291 -0.5292 h -0.5292 -0.5292 v 0.5292 0.5291 0.5292 0.5292 h -0.5291 v -0.5292 -0.5292 -0.5291 -0.5292 z m 2.6458,0 h 0.5292 0.5291 0.5292 0.5292 v 0.5292 0.5292 0.5291 h -0.5292 v -0.5291 -0.5292 h -0.5292 -0.5291 v 0.5292 0.5291 0.5292 0.5292 h -0.5292 v -0.5292 -0.5292 -0.5291 -0.5292 z m -9.7896,0.7938 h 0.5292 v 0.5292 h -0.5292 z m 10.5834,0 h 0.5291 v 0.5292 h -0.5291 z m -13.2292,0.2646 h 0.5291 v 0.5291 h -0.5291 z m 5.2916,0 h 0.5292 v 0.5291 h -0.5292 z m 2.6459,0 h 0.5292 v 0.5291 0.5292 0.5292 h -0.5292 v -0.5292 -0.5292 z m 2.6458,0 h 0.5292 v 0.5291 h -0.5292 z m -19.05,0.3704 v 5.1858 h 15.24 v -3.2279 h -8.3079 v -0.2117 -1.7462 z m 21.6959,0.1587 h 0.5291 l 0.7938,1.0584 h -0.5292 z" /></g></svg>
