<?xml version="1.0" encoding="UTF-8" standalone="no"?>
<!-- Created with Inkscape (http://www.inkscape.org/) -->

<svg
   width="116"
   height="40"
   viewBox="0 0 30.691667 10.583333"
   version="1.1"
   id="svg1"
   inkscape:export-filename="verification_cover.svg"
   inkscape:export-xdpi="100"
   inkscape:export-ydpi="100"
   inkscape:version="1.3.2 (1:1.3.2+202311252150+091e20ef0f)"
   sodipodi:docname="cover.svg"
   xml:space="preserve"
   xmlns:inkscape="http://www.inkscape.org/namespaces/inkscape"
   xmlns:sodipodi="http://sodipodi.sourceforge.net/DTD/sodipodi-0.dtd"
   xmlns="http://www.w3.org/2000/svg"
   xmlns:svg="http://www.w3.org/2000/svg"><sodipodi:namedview
     id="namedview1"
     pagecolor="#ffffff"
     bordercolor="#666666"
     borderopacity="1.0"
     inkscape:showpageshadow="2"
     inkscape:pageopacity="0.0"
     inkscape:pagecheckerboard="0"
     inkscape:deskcolor="#d1d1d1"
     inkscape:document-units="px"
     inkscape:zoom="0.32"
     inkscape:cx="-23650"
     inkscape:cy="-1625"
     inkscape:window-width="1868"
     inkscape:window-height="1016"
     inkscape:window-x="52"
     inkscape:window-y="27"
     inkscape:window-maximized="1"
     inkscape:current-layer="layer1"
     inkscape:export-bgcolor="#ffffff00" /><defs
     id="defs1" /><g
     inkscape:label="Layer 1"
     inkscape:groupmode="layer"
     id="layer1"
     transform="translate(8972.2363,1785.757)"><path
       id="rect11-8"
       style="fill:#ffffff;stroke:none;stroke-width:0.0144112"
       d="m -8972.2369,-1785.7569 v 5.1534 h 7.1437 v 1.9903 h 8.3402 v 3.4396 h 15.2074 v -5.1534 h -7.1437 v -1.9903 h -8.3402 v -0.2766 -3.163 z m 15.4839,0 v 3.163 h 8.3403 v 1.9904 h 6.8671 v -5.1534 z m -1.9903,3.9687 0.635,1.0584 h -0.5292 l -0.1058,-0.1764 v 0.1764 0.5291 0.5292 0.5292 h -0.5292 v -0.5292 -0.5292 -0.5291 -0.5292 -0.5291 z m 7.4082,10e-5 h 0.5292 v 0.5291 0.5292 0.5291 0.5292 0.5292 h -0.5292 v -0.5292 -0.5292 -0.5291 -0.5292 z m 0.7938,0 h 0.5291 v 0.5291 0.5292 0.5291 l -0.2645,0.5292 -0.2646,-0.5292 v -0.5291 -0.5292 z m 0.7937,0 h 0.5292 v 0.5291 0.5292 0.5291 0.5292 0.5292 h -0.5292 v -0.5292 -0.5292 -0.5291 -0.5292 z m -14.8165,0 h 0.5292 0.5291 0.5292 l 0.5292,0.5291 h -0.5292 -0.5292 -0.5291 -0.5292 z m 2.6458,0 h 0.5292 0.5291 0.5292 0.5292 v 0.5291 0.5292 0.5291 0.5292 0.5292 h -0.5292 v -0.5292 -0.5292 -0.5291 -0.5292 h -0.5292 -0.5291 v 0.5292 0.5291 0.5292 0.5292 h -0.5292 v -0.5292 -0.5292 -0.5291 -0.5292 z m 5.2916,0 h 0.5292 0.5292 0.5291 l 0.5293,0.5291 v 0.5292 0.5291 0.5292 l -0.5293,0.5292 h -0.5291 -0.5292 -0.5292 v -0.5292 -0.5292 -0.5291 -0.5292 z m 2.6458,0 h 0.5292 0.5292 0.5291 0.5293 v 0.5291 0.5292 0.5291 0.5292 0.5292 h -0.5293 -0.5291 -0.5292 -0.5292 v -0.5292 -0.5292 -0.5291 -0.5292 z m -3.7041,0 h 0.5292 v 0.5291 0.5292 0.5292 0.5291 0.5292 h -0.5292 v 0 0 l -0.635,-1.0583 h 0.5292 l 0.1058,0.1763 v -0.1763 -0.5292 -0.5292 z m 1.5875,0.5291 v 0.5292 0.5291 0.5292 h 0.5292 0.5291 v -0.5292 -0.5291 -0.5292 h -0.5291 z m 2.6458,0 v 0.5292 0.5291 0.5292 h 0.5292 0.5291 v -0.5292 -0.5291 -0.5292 h -0.5291 z m -11.1124,0 h 0.5292 v 0.5292 0.5292 0.5291 0.5292 h -0.5292 v -0.5292 -0.5291 -0.5292 z m 3.4396,0.5292 h 0.5291 v 0.5291 h -0.5291 z m 7.9374,0 h 0.5291 v 0.5291 h -0.5291 z m -10.3187,0 h 0.5292 0.5292 l -0.5292,0.5291 h -0.5292 z m 7.6729,0 h 0.5291 v 0.5291 h -0.5291 z m -16.404,0.4028 v 5.1534 h 15.2074 v -3.163 h -8.3403 v -0.2766 -1.7138 z" /></g></svg>
