<?xml version="1.0" encoding="UTF-8" standalone="no"?>
<!-- Created with Inkscape (http://www.inkscape.org/) -->

<svg
   width="96"
   height="40"
   viewBox="0 0 25.4 10.583333"
   version="1.1"
   id="svg1"
   inkscape:export-filename="verification_cover.svg"
   inkscape:export-xdpi="100"
   inkscape:export-ydpi="100"
   inkscape:version="1.3.2 (1:1.3.2+202311252150+091e20ef0f)"
   sodipodi:docname="cover.svg"
   xml:space="preserve"
   xmlns:inkscape="http://www.inkscape.org/namespaces/inkscape"
   xmlns:sodipodi="http://sodipodi.sourceforge.net/DTD/sodipodi-0.dtd"
   xmlns="http://www.w3.org/2000/svg"
   xmlns:svg="http://www.w3.org/2000/svg"><sodipodi:namedview
     id="namedview1"
     pagecolor="#ffffff"
     bordercolor="#666666"
     borderopacity="1.0"
     inkscape:showpageshadow="2"
     inkscape:pageopacity="0.0"
     inkscape:pagecheckerboard="0"
     inkscape:deskcolor="#d1d1d1"
     inkscape:document-units="px"
     inkscape:zoom="0.08"
     inkscape:cx="-26525"
     inkscape:cy="-2487.5"
     inkscape:window-width="1868"
     inkscape:window-height="1016"
     inkscape:window-x="52"
     inkscape:window-y="27"
     inkscape:window-maximized="1"
     inkscape:current-layer="layer1"
     inkscape:export-bgcolor="#ffffff00" /><defs
     id="defs1" /><g
     inkscape:label="Layer 1"
     inkscape:groupmode="layer"
     id="layer1"
     transform="translate(15015.157,4339.1665)"><path
       id="rect8"
       style="fill:#000000;stroke-width:0.0196974"
       d="m -15015.157,-4339.1667 v 5.1858 h 5.821 v 1.9579 h 6.985 v 3.4396 h 12.594 v -5.1858 h -5.609 -0.212 v -1.9579 h -6.985 v 0 -3.4396 z m 12.806,0 v 3.2279 h 6.985 v 1.9579 h 5.609 v -5.1858 z m -5.927,3.9688 h 0.529 0.529 l 0.53,0.5291 h -0.53 -0.529 -0.529 -0.529 z m 2.117,0 h 0.529 0.529 0.529 0.529 v 0.5291 0.5292 0.5292 0.5291 0.5292 h -0.529 -0.529 -0.529 -0.529 v -0.5292 -0.5291 -0.5292 -0.5292 z m 2.646,0 h 0.529 v 0.5291 0.5292 0.5292 l 0.529,0.7055 0.529,-0.7055 v -0.5292 -0.5292 -0.5291 h 0.529 v 0.5291 0.5292 0.5292 l -0.793,1.0583 h -0.53 l -0.793,-1.0583 v -0.5292 -0.5292 z m 2.645,0 h 0.53 0.529 0.529 0.529 v 0.5291 h -0.529 -0.529 -0.529 v 0.5292 0.5292 0.5291 h 0.529 0.529 0.529 v 0.5292 h -0.529 -0.529 -0.529 -0.53 v -0.5292 -0.5291 -0.5292 -0.5292 z m 2.646,0 h 0.529 0.53 0.529 0.529 v 0.5291 0.5292 0.5292 h -0.529 v -0.5292 -0.5292 h -0.529 -0.53 v 0.5292 0.5292 0.5291 0.5292 h -0.529 v -0.5292 -0.5291 -0.5292 -0.5292 z m -7.408,0.5291 v 0.5292 0.5292 0.5291 h 0.529 0.529 v -0.5291 -0.5292 -0.5292 h -0.529 z m -3.175,0 h 0.529 v 0.5292 0.5292 0.5291 h 0.529 0.529 0.53 l -0.53,0.5292 h -0.529 -0.529 l -0.529,-0.5292 v -0.5291 -0.5292 z m 6.085,0.2646 h 0.53 v 0.5292 h -0.53 z m 5.292,0 h 0.529 v 0.5292 h -0.529 z m -7.937,0.2646 h 0.529 v 0.5292 h -0.529 z m 5.556,0 h 0.529 0.529 v 0.5292 h -0.529 -0.529 z m -7.938,0 h 0.529 v 0.5292 h -0.529 z m -7.408,0.3704 v 5.1858 h 12.594 v -3.2279 h -6.773 -0.212 v -1.9579 z m 17.727,0.1588 h 0.529 l 0.794,1.0583 h -0.529 z" /></g></svg>
