<?xml version="1.0" encoding="UTF-8" standalone="no"?>
<!-- Created with Inkscape (http://www.inkscape.org/) -->

<svg
   width="100"
   height="100"
   viewBox="0 0 26.458333 26.458333"
   version="1.1"
   id="svg1"
   inkscape:export-filename="email_cover.svg"
   inkscape:export-xdpi="100"
   inkscape:export-ydpi="100"
   xmlns:inkscape="http://www.inkscape.org/namespaces/inkscape"
   xmlns:sodipodi="http://sodipodi.sourceforge.net/DTD/sodipodi-0.dtd"
   xmlns="http://www.w3.org/2000/svg"
   xmlns:svg="http://www.w3.org/2000/svg">
  <sodipodi:namedview
     id="namedview1"
     pagecolor="#ffffff"
     bordercolor="#666666"
     borderopacity="1.0"
     inkscape:showpageshadow="2"
     inkscape:pageopacity="0.0"
     inkscape:pagecheckerboard="0"
     inkscape:deskcolor="#d1d1d1"
     inkscape:document-units="mm" />
  <defs
     id="defs1" />
  <g
     inkscape:label="Layer 1"
     inkscape:groupmode="layer"
     id="layer1">
    <path
       id="rect1"
       style="fill:#000000;stroke-width:0.657467;stroke-linecap:round;stroke-linejoin:round"
       d="M 0,0 V 23.231657 L 0.64543864,22.586218 1.2908773,21.941296 1.9357992,21.295858 h 1.2908772 l -0.6454386,0.645438 -0.6454386,0.644922 -0.6449219,0.645439 0.6449219,0.645439 0.6454386,0.645438 0.6454386,0.644922 0.6454387,0.645439 -0.6454387,0.645438 H 26.458333 V 3.2266764 L 25.812895,3.8721151 25.167456,3.2266764 24.522534,2.5812378 23.877096,1.9357992 23.231657,1.2908773 22.586218,0.64543864 23.231657,0 Z m 23.231657,0 0.645439,0.64543864 0.645438,0.64543866 0.644922,0.6449219 0.645439,0.6454386 0.645438,0.6454386 V 0 Z M 3.2266764,26.458333 2.5812378,25.812895 1.9357992,25.167456 1.2908773,24.522534 0.64543864,23.877096 0,23.231657 v 3.226676 z M 22.263757,0.96789958 22.909196,1.6133382 23.554118,2.2587769 24.199556,2.9042155 24.522534,3.8721151 23.554118,3.5491374 22.909196,2.9042155 22.263757,2.2587769 21.618319,1.6133382 Z m -0.967899,0.96789962 0.645438,0.6454386 0.644922,0.6454386 0.645439,0.6454387 0.645439,0.6449218 0.645438,0.6454387 L 23.877096,5.8079142 23.231657,5.1624756 22.586218,4.5170369 21.941296,3.8721151 21.295858,3.2266764 20.650419,2.5812378 Z m -2.194182,2.1941813 0.645439,0.6454386 0.644922,0.6454386 0.645439,0.6454387 0.645438,0.6449219 0.645439,0.6454386 L 21.682914,8.0020955 21.037476,8.6475342 20.392037,9.2924561 19.747115,9.9378947 19.101676,9.2924561 18.456238,8.6475342 17.810799,8.0020955 17.165877,7.3566569 16.520439,6.7112183 17.165877,6.0662964 17.810799,5.4208577 18.456238,4.7754191 Z m 0,1.2908772 -0.645438,0.6454387 -0.645439,0.6449219 0.645439,0.6454386 0.645438,0.6454386 0.645439,0.6454387 L 20.392037,8.0020955 21.037476,7.3566569 20.392037,6.7112183 19.747115,6.0662964 Z M 19.424137,6.3887573 20.069576,7.034196 19.424137,7.6791178 18.779215,7.034196 Z m -5.09788,2.5166423 h 1.290878 l 0.644921,0.6454386 0.645439,0.6454388 0.645439,0.645438 v 1.290361 l -0.645439,0.645439 -0.645439,0.645438 -0.645438,0.644922 -0.644922,-0.644922 -0.645439,-0.645438 -0.645438,-0.645439 -0.645439,-0.645439 -0.644922,-0.644922 0.644922,-0.645438 0.645439,-0.6454388 z m 0.645439,0.6454386 -0.645439,0.6454388 -0.645438,0.645438 0.645438,0.644922 0.645439,0.645439 0.644922,0.645439 0.645438,-0.645439 0.645439,-0.645439 -0.645439,-0.644922 -0.644921,-0.645438 z m 0.322461,0.9678998 0.645439,0.645438 -0.645439,0.645439 -0.645439,-0.645439 z m -4.452442,1.87172 0.644922,0.644922 0.645439,0.645439 0.645439,0.645438 0.645438,0.645439 0.644922,0.645439 -0.644922,0.644921 -2.06499,-0.516247 0.644922,-0.645439 0.344165,0.0863 -0.214974,-0.214974 -0.645439,-0.645439 -0.644922,-0.645438 -0.645438,-0.645439 z m -1.9363154,1.935799 2.0649904,0.516248 -0.644922,0.645439 -0.3446819,-0.0863 0.2154909,0.214974 0.645438,0.645438 0.644922,0.645439 0.645439,0.645439 -0.645439,0.645438 L 10.841715,17.552934 10.196277,16.907495 9.5508382,16.262056 8.9053996,15.616618 8.2599609,14.971696 Z m -2.1941813,2.194182 0.6454386,0.645438 0.6454386,0.644922 0.6454387,0.645439 0.6449219,0.645438 0.6454386,0.645439 L 9.2924561,20.392037 8.6475342,19.747115 8.0020955,19.101676 7.3566569,18.456238 6.7112183,17.810799 6.0662964,18.456238 5.4208577,19.101676 6.0662964,19.747115 6.7112183,20.392037 7.3566569,21.037476 8.0020955,21.682914 7.3566569,22.328353 6.7112183,21.682914 6.0662964,21.037476 5.4208577,20.392037 4.7754191,19.747115 4.1299805,19.101676 4.7754191,18.456238 5.4208577,17.810799 6.0662964,17.165877 Z M 7.034196,18.779215 7.6791178,19.424137 7.034196,20.069576 6.3887573,19.424137 Z m -3.1620809,3.162081 v 1.290361 L 3.2266764,23.877096 2.5812378,23.231657 3.2266764,22.586218 Z" />
  </g>
</svg>
