<?xml version="1.0" encoding="UTF-8" standalone="no"?>
<!-- Created with Inkscape (http://www.inkscape.org/) -->

<svg
   width="600"
   height="600"
   viewBox="0 0 158.75 158.75"
   version="1.1"
   id="svg1"
   inkscape:export-filename="verification_cover.svg"
   inkscape:export-xdpi="100"
   inkscape:export-ydpi="100"
   inkscape:version="1.3.2 (1:1.3.2+202311252150+091e20ef0f)"
   sodipodi:docname="cover.svg"
   xml:space="preserve"
   xmlns:inkscape="http://www.inkscape.org/namespaces/inkscape"
   xmlns:sodipodi="http://sodipodi.sourceforge.net/DTD/sodipodi-0.dtd"
   xmlns="http://www.w3.org/2000/svg"
   xmlns:svg="http://www.w3.org/2000/svg"><sodipodi:namedview
     id="namedview1"
     pagecolor="#ffffff"
     bordercolor="#666666"
     borderopacity="1.0"
     inkscape:showpageshadow="2"
     inkscape:pageopacity="0.0"
     inkscape:pagecheckerboard="0"
     inkscape:deskcolor="#d1d1d1"
     inkscape:document-units="px"
     inkscape:zoom="0.06113981"
     inkscape:cx="-27576.141"
     inkscape:cy="-1112.205"
     inkscape:window-width="1868"
     inkscape:window-height="1016"
     inkscape:window-x="52"
     inkscape:window-y="27"
     inkscape:window-maximized="1"
     inkscape:current-layer="layer1"
     inkscape:export-bgcolor="#ffffff00" /><defs
     id="defs1" /><g
     inkscape:label="Layer 1"
     inkscape:groupmode="layer"
     id="layer1"
     transform="translate(6547.2817,320.52054)"><path
       id="rect21"
       style="fill:#ffffff;stroke-width:0.502561"
       d="m -6547.2816,-320.52055 v 158.75 h 158.75 v -158.75 z m 79.375,23.73587 a 7.9561438,8.1240261 0 0 1 7.9562,8.12428 7.9561438,8.1240261 0 0 1 -7.9562,8.12397 v 3.1e-4 a 15.912213,16.247976 0 0 1 15.9123,16.24794 15.912213,16.247976 0 0 1 -3e-4,0.003 v -0.004 h -31.824 a 15.912213,16.247976 0 0 1 15.912,-16.24763 7.9561438,8.1240261 0 0 1 -7.9562,-8.12397 7.9561438,8.1240261 0 0 1 7.9562,-8.12428 z m -40.5608,30.09077 a 7.9561438,8.1240261 0 0 1 7.9562,8.12428 7.9561438,8.1240261 0 0 1 -7.9562,8.12367 7.9561438,8.1240261 0 0 1 -7.9562,-8.12367 7.9561438,8.1240261 0 0 1 7.9562,-8.12428 z m 81.1213,3.1e-4 a 7.9561438,8.1240261 0 0 1 7.9562,8.12397 7.9561438,8.1240261 0 0 1 -7.9562,8.12398 v 3e-4 a 15.912213,16.247976 0 0 1 15.9123,16.24795 15.912213,16.247976 0 0 1 -3e-4,0.003 v -0.003 h -31.8243 a 15.912213,16.247976 0 0 1 15.9123,-16.24795 7.9561438,8.1240261 0 0 1 -7.9561,-8.12397 7.9561438,8.1240261 0 0 1 7.9561,-8.12397 z m -81.1213,16.24795 a 15.912213,16.247976 0 0 1 15.9125,16.24794 15.912213,16.247976 0 0 1 -2e-4,0.003 v -0.003 h -31.8243 a 15.912213,16.247976 0 0 1 15.912,-16.24794 z m 15.493,32.43963 a 7.9561438,8.1240261 0 0 1 7.9561,8.12428 7.9561438,8.1240261 0 0 1 -7.9561,8.12398 v 3e-4 a 15.912213,16.247976 0 0 1 15.9123,16.24795 15.912213,16.247976 0 0 1 -3e-4,0.003 v -0.004 h -31.824 a 15.912213,16.247976 0 0 1 15.912,-16.24794 7.9561438,8.1240261 0 0 1 -7.9561,-8.12398 7.9561438,8.1240261 0 0 1 7.9561,-8.12428 z m 50.1356,3.1e-4 a 7.9561438,8.1240261 0 0 1 7.9561,8.12397 7.9561438,8.1240261 0 0 1 -7.9561,8.12428 7.9561438,8.1240261 0 0 1 -3e-4,0 v 3.1e-4 a 15.912213,16.247976 0 0 1 15.9123,16.24733 h -31.8243 a 15.912213,16.247976 0 0 1 15.912,-16.24764 7.9561438,8.1240261 0 0 1 -7.9558,-8.12428 7.9561438,8.1240261 0 0 1 7.9561,-8.12397 z" /></g></svg>
