<?xml version="1.0" encoding="UTF-8" standalone="no"?>
<!-- Created with Inkscape (http://www.inkscape.org/) -->

<svg
   width="244.0117"
   height="40"
   viewBox="0 0 64.56143 10.583333"
   version="1.1"
   id="svg1"
   xml:space="preserve"
   xmlns="http://www.w3.org/2000/svg"
   xmlns:svg="http://www.w3.org/2000/svg"><defs
     id="defs1" /><g
     id="layer1"
     transform="translate(6334.9204,743.42462)"><path
       id="rect42"
       style="fill:#ffffff;stroke-width:0.598592"
       d="m -6334.9203,-743.42464 v 5.18573 h 15.8223 v 1.74615 h 16.5643 v 0.21187 h -5e-4 v 3.43958 h 32.1753 v -5.18573 h -15.8233 v -1.74614 h -16.352 -0.2113 v -3.65146 z m 32.3861,0 v 3.43958 h 16.5639 v 1.74615 h 15.6114 v -5.18573 z m -16.246,3.96875 h 0.5292 0.5291 0.5292 l 0.5292,0.52917 h -0.5292 -0.5292 -0.5291 v 0.52916 0.52917 0.52917 0.52916 h -0.5292 v -0.52916 -0.52917 -0.52917 -0.52916 z m 2.6458,0 h 0.5292 0.5292 0.5291 0.5292 v 0.52917 0.52916 0.52917 0.52917 0.52916 h -0.5292 v -0.52916 -0.52917 -0.52917 -0.52916 h -0.5291 -0.5292 v 0.52916 0.52917 0.52917 0.52916 h -0.5292 v -0.52916 -0.52917 -0.52917 -0.52916 z m 2.6459,0 h 0.5296 l 0.6346,1.05833 h -0.5291 l -0.1055,-0.17621 v 0.17621 0.52917 0.52917 0.52916 h -0.5296 v -0.52916 -0.52917 -0.52917 -0.52916 z m 1.5875,0 h 0.5296 v 0.52917 0.52916 0.52917 0.52917 0.52916 h -0.5296 l -0.6346,-1.05833 h 0.5291 l 0.1055,0.17622 v -0.17622 -0.52917 -0.52916 z m 1.0588,0 h 0.5292 0.5291 0.5292 l 0.5292,0.52917 v 0.52916 0.52917 0.52917 l -0.5292,0.52916 h -0.5292 -0.5291 -0.5292 v -0.52916 -0.52917 -0.52917 -0.52916 z m 2.6458,0 h 0.5292 0.5292 0.5291 0.5292 v 0.52917 0.52916 0.52917 0.52917 0.52916 h -0.5292 -0.5291 -0.5292 -0.5292 v -0.52916 -0.52917 -0.52917 -0.52916 z m 2.6459,0 h 0.5291 v 0.52917 0.52916 0.52917 0.52917 0.52916 h -0.5291 v -0.52916 -0.52917 -0.52917 -0.52916 z m 0.7937,0 h 0.5292 v 0.52917 0.52916 0.52917 l -0.2646,0.52917 -0.2646,-0.52917 v -0.52917 -0.52916 z m 0.7938,0 h 0.5291 v 0.52917 0.52916 0.52917 0.52917 0.52916 h -0.5291 v -0.52916 -0.52917 -0.52917 -0.52916 z m 1.0583,0 h 0.5292 0.5291 0.5292 0.5287 v 0.52917 h -0.5287 -0.5292 -0.5291 v 0.52916 0.52917 l -0.5292,-0.52917 v -0.52916 z m 2.6458,0 h 0.5292 0.5292 0.5291 0.5292 v 0.52917 h -0.5292 -0.5291 -0.5292 v 0.52916 0.52917 0.52917 h 0.5292 0.5291 0.5292 v 0.52916 h -0.5292 -0.5291 -0.5292 -0.5292 v -0.52916 -0.52917 -0.52917 -0.52916 z m 2.6459,0 h 0.5291 0.5292 0.5292 0.5291 v 0.52917 h -0.5291 -0.5292 -0.5292 -0.5291 z m 2.6464,0 h 0.5291 0.5286 0.5297 0.5287 v 0.52917 h -0.5287 -0.5297 -0.5286 -0.5291 z m 2.6459,0 h 0.5291 v 0.52917 0.52916 0.52917 0.52917 0.52916 h -0.5291 v -0.52916 -0.52917 -0.52917 -0.52916 z m 1.0583,0 h 0.5292 l 0.6351,1.05833 h -0.5292 l -0.1059,-0.17621 v 0.17621 0.52917 0.52917 0.52916 h -0.5292 v -0.52916 -0.52917 -0.52917 -0.52916 z m 1.5874,0 h 0.5292 v 0.52917 0.52916 0.52917 0.52917 0.52916 h -0.5292 l -0.6346,-1.05833 h 0.5292 l 0.1054,0.17622 v -0.17622 -0.52917 -0.52916 z m 1.0588,0 h 0.5292 0.5292 0.5291 0.5292 v 0.52917 h -0.5292 -0.5291 -0.5292 v 0.52916 0.52917 0.52917 h 0.5292 0.5291 v -0.52917 -0.52917 h 0.5292 v 0.52917 0.52917 0.52916 h -0.5292 -0.5291 -0.5292 -0.5292 v -0.52916 -0.52917 -0.52917 -0.52916 z m -21.6968,0.52917 v 0.52916 0.52917 0.52917 h 0.5291 0.5292 v -0.52917 -0.52917 -0.52916 h -0.5292 z m 2.6459,0 v 0.52916 0.52917 0.52917 h 0.5292 0.529 v -0.52917 -0.52917 -0.52916 h -0.529 z m -10.0547,0.52916 h 0.5292 0.5292 l -0.5292,0.52917 h -0.5292 z m 2.3813,0 h 0.5291 v 0.52917 h -0.5291 z m 5.2922,0 h 0.5291 v 0.52917 h -0.5291 z m 2.6458,0 h 0.5292 v 0.52917 h -0.5292 z m 5.2911,0 h 0.5297 v 0.52917 h -0.5297 z m 0.7943,0 0.5287,0.52917 v 0.52917 0.52916 h -0.5287 -0.5292 -0.5291 -0.5292 v -0.52916 h 0.5292 0.5291 0.5292 v -0.52917 z m 2.1167,0 h 0.529 0.5292 v 0.52917 h -0.5292 -0.529 z m 2.3811,0 h 0.5292 v 0.52917 0.52917 0.52916 h -0.5292 v -0.52916 -0.52917 z m 2.646,0 h 0.5296 v 0.52917 0.52917 0.52916 h -0.5296 v -0.52916 -0.52917 z m 6.3509,0 h 0.5292 v 0.52917 h -0.5292 z m -47.0978,0.37052 v 5.18573 h 32.1748 v -3.43958 h -16.3525 -0.2109 -6e-4 v -1.74615 z" /></g></svg>
