<?xml version="1.0" encoding="UTF-8" standalone="no"?>
<!-- Created with Inkscape (http://www.inkscape.org/) -->

<svg
   width="84"
   height="40"
   viewBox="0 0 22.225 10.583333"
   version="1.1"
   id="svg1"
   inkscape:export-filename="verification_cover.svg"
   inkscape:export-xdpi="100"
   inkscape:export-ydpi="100"
   inkscape:version="1.3.2 (1:1.3.2+202311252150+091e20ef0f)"
   sodipodi:docname="cover.svg"
   xml:space="preserve"
   xmlns:inkscape="http://www.inkscape.org/namespaces/inkscape"
   xmlns:sodipodi="http://sodipodi.sourceforge.net/DTD/sodipodi-0.dtd"
   xmlns="http://www.w3.org/2000/svg"
   xmlns:svg="http://www.w3.org/2000/svg"><sodipodi:namedview
     id="namedview1"
     pagecolor="#ffffff"
     bordercolor="#666666"
     borderopacity="1.0"
     inkscape:showpageshadow="2"
     inkscape:pageopacity="0.0"
     inkscape:pagecheckerboard="0"
     inkscape:deskcolor="#d1d1d1"
     inkscape:document-units="px"
     inkscape:zoom="2.56"
     inkscape:cx="-33869.141"
     inkscape:cy="-6750.3907"
     inkscape:window-width="1868"
     inkscape:window-height="1016"
     inkscape:window-x="52"
     inkscape:window-y="27"
     inkscape:window-maximized="1"
     inkscape:current-layer="layer1"
     inkscape:export-bgcolor="#ffffff00" /><defs
     id="defs1" /><g
     inkscape:label="Layer 1"
     inkscape:groupmode="layer"
     id="layer1"
     transform="translate(7499.7817,1989.6512)"><path
       id="rect16"
       style="fill:#000000;stroke:none;stroke-width:0.0316405"
       d="m -7499.7816,-1989.6511 v 5.1594 h 5.0271 v 0.2646 0 1.7198 h 6.2177 v 3.4395 h 10.9802 v -5.1593 h -4.7625 -0.2645 v -1.9844 h -5.9532 -0.2646 v -3.4396 z m 11.2448,0 v 3.175 h 6.2177 v 0.2646 0 1.7198 h 4.7625 v -5.1594 z m 3.8365,3.9687 0.635,1.0584 h -0.5292 l -0.1058,-0.1764 v 0.1764 0.5292 0.5291 0.5292 h -0.5292 v -0.5292 -0.5291 -0.5292 -0.5292 -0.5291 z m -9.525,10e-5 h 0.5291 v 0.5291 0.5292 0.5292 0.5291 h 0.5292 0.5292 0.5291 v 0.5292 h -0.5291 -0.5292 -0.5292 -0.5291 v -0.5292 -0.5291 -0.5292 -0.5292 z m 2.6458,0 h 0.5292 0.5291 0.5292 0.5292 v 0.5291 0.5292 0.5292 0.5291 0.5292 h -0.5292 -0.5292 -0.5291 -0.5292 v -0.5292 -0.5291 -0.5292 -0.5292 z m 2.6458,0 h 0.5292 0.5292 0.5291 0.5292 v 0.5291 h -0.5292 -0.5291 -0.5292 v 0.5292 0.5292 0.5291 h 0.5292 0.5291 v -0.5291 -0.5292 h 0.5292 v 0.5292 0.5291 0.5292 h -0.5292 -0.5291 -0.5292 -0.5292 v -0.5292 -0.5291 -0.5292 -0.5292 z m 2.6459,0 h 0.5291 v 0.5291 0.5292 0.5292 0.5291 0.5292 h -0.5291 v -0.5292 -0.5291 -0.5292 -0.5292 z m 2.6458,0 h 0.5292 v 0.5291 0.5292 0.5292 0.5291 0.5292 h -0.5292 v 0 0 l -0.635,-1.0583 h 0.5292 l 0.1058,0.1763 v -0.1763 -0.5292 -0.5292 z m -7.4083,0.5291 v 0.5292 0.5292 0.5291 h 0.5291 0.5292 v -0.5291 -0.5292 -0.5292 h -0.5292 z m 0.2646,0.5292 h 0.5291 v 0.5292 h -0.5291 z m 2.6458,0 h 0.5291 v 0.5292 h -0.5291 z m -11.6417,0.3969 v 5.1593 h 10.9802 v -3.1749 h -5.9531 -0.2646 v -1.9844 z" /></g></svg>
