<?xml version="1.0" encoding="UTF-8" standalone="no"?>
<!-- Created with Inkscape (http://www.inkscape.org/) -->

<svg
   width="600"
   height="599.99988"
   viewBox="0 0 158.75 158.74997"
   version="1.1"
   id="svg1"
   inkscape:export-filename="verification_cover.svg"
   inkscape:export-xdpi="100"
   inkscape:export-ydpi="100"
   inkscape:version="1.3.1 (9b9bdc1480, 2023-11-25, custom)"
   sodipodi:docname="cover.svg"
   xml:space="preserve"
   xmlns:inkscape="http://www.inkscape.org/namespaces/inkscape"
   xmlns:sodipodi="http://sodipodi.sourceforge.net/DTD/sodipodi-0.dtd"
   xmlns="http://www.w3.org/2000/svg"
   xmlns:svg="http://www.w3.org/2000/svg"><sodipodi:namedview
     id="namedview1"
     pagecolor="#ffffff"
     bordercolor="#666666"
     borderopacity="1.0"
     inkscape:showpageshadow="2"
     inkscape:pageopacity="0.0"
     inkscape:pagecheckerboard="0"
     inkscape:deskcolor="#d1d1d1"
     inkscape:document-units="px"
     inkscape:zoom="0.044194174"
     inkscape:cx="1086.116"
     inkscape:cy="-45.254834"
     inkscape:window-width="1868"
     inkscape:window-height="1016"
     inkscape:window-x="52"
     inkscape:window-y="27"
     inkscape:window-maximized="1"
     inkscape:current-layer="layer1" /><defs
     id="defs1" /><g
     inkscape:label="Layer 1"
     inkscape:groupmode="layer"
     id="layer1"
     transform="translate(5017.3892,-391.86023)"><path
       id="rect41"
       style="fill:#000000;fill-opacity:1;stroke:none;stroke-width:0;stroke-linecap:round;stroke-linejoin:round;stroke-dasharray:none;stroke-opacity:1"
       d="m -5017.3895,391.86021 v 158.74997 h 158.75 V 391.86021 Z m 57.7684,40.61767 a 19.378657,19.378657 0 0 1 19.3787,19.37865 19.378657,19.378657 0 0 1 -19.3787,19.37866 38.757315,38.757315 0 0 1 38.7573,38.75732 h -77.5146 a 38.757315,38.757315 0 0 1 38.7573,-38.75732 19.378657,19.378657 0 0 1 -19.3786,-19.37866 19.378657,19.378657 0 0 1 19.3786,-19.37865 z m 43.602,0 h 29.0679 c 2.684,0 4.8448,2.16073 4.8448,4.84466 0,2.68393 -2.1608,4.84467 -4.8448,4.84467 h -7.2669 -14.534 c -1.342,0 -2.4223,1.08035 -2.4223,2.42233 v 14.53399 c 0,1.34197 1.0803,2.42233 2.4223,2.42233 h 14.534 7.2669 c 2.684,0 4.8448,2.16073 4.8448,4.84467 0,2.68393 -2.1608,4.84466 -4.8448,4.84466 h -29.0679 c -2.6839,0 -4.8447,-2.16073 -4.8447,-4.84466 v -29.06799 c 0,-2.68393 2.1608,-4.84466 4.8447,-4.84466 z m 16.2466,13.52872 c 0.6192,1e-5 1.2375,0.23711 1.712,0.71156 0.9488,0.94891 0.9488,2.47747 0,3.42639 l -1.712,1.71198 1.712,1.71199 c 0.9488,0.94891 0.9488,2.47748 0,3.42639 -0.9489,0.94892 -2.4757,0.94892 -3.4246,0 l -3.4258,-3.42639 c -0.9489,-0.9489 -0.9489,-2.47507 0,-3.42397 l 3.4258,-3.42639 c 0.4745,-0.47445 1.0933,-0.71156 1.7126,-0.71156 z m 5.1656,3.4276 h 14.534 c 1.342,0 2.4223,1.08036 2.4223,2.42233 0,1.34197 -1.0803,2.42234 -2.4223,2.42234 h -14.534 c -1.3419,0 -2.4223,-1.08037 -2.4223,-2.42234 0,-1.34197 1.0804,-2.42233 2.4223,-2.42233 z"
       inkscape:export-filename="login-black.svg"
       inkscape:export-xdpi="100"
       inkscape:export-ydpi="100" /></g></svg>
