<?xml version="1.0" encoding="UTF-8" standalone="no"?>
<!-- Created with Inkscape (http://www.inkscape.org/) -->

<svg
   width="512"
   height="512"
   viewBox="0 0 512 512"
   version="1.1"
   id="svg1"
   inkscape:export-filename="login.svg"
   inkscape:export-xdpi="100"
   inkscape:export-ydpi="100"
   xmlns:inkscape="http://www.inkscape.org/namespaces/inkscape"
   xmlns:sodipodi="http://sodipodi.sourceforge.net/DTD/sodipodi-0.dtd"
   xmlns="http://www.w3.org/2000/svg"
   xmlns:svg="http://www.w3.org/2000/svg">
  <sodipodi:namedview
     id="namedview1"
     pagecolor="#ffffff"
     bordercolor="#666666"
     borderopacity="1.0"
     inkscape:showpageshadow="2"
     inkscape:pageopacity="0.0"
     inkscape:pagecheckerboard="0"
     inkscape:deskcolor="#d1d1d1"
     inkscape:document-units="px"
     inkscape:export-bgcolor="#ffffffce"
     inkscape:zoom="0.71777344"
     inkscape:cx="121.90476"
     inkscape:cy="266.79728"
     inkscape:window-width="1920"
     inkscape:window-height="991"
     inkscape:window-x="-9"
     inkscape:window-y="-9"
     inkscape:window-maximized="1"
     inkscape:current-layer="layer1"
     showguides="false" />
  <defs
     id="defs1" />
  <g
     inkscape:label="Layer 1"
     inkscape:groupmode="layer"
     id="layer1">
    <path
       id="rect41"
       style="opacity:1;fill:#000000;fill-opacity:1;stroke:none;stroke-width:0;stroke-linecap:round;stroke-linejoin:round;stroke-dasharray:none;stroke-opacity:1"
       d="M 0,0 V 512 H 512 V 0 Z m 186.31445,131 a 62.5,62.5 0 0 1 62.5,62.5 62.5,62.5 0 0 1 -62.5,62.5 125,125 0 0 1 125,125 H 61.314453 a 125,125 0 0 1 124.999997,-125 62.5,62.5 0 0 1 -62.5,-62.5 62.5,62.5 0 0 1 62.5,-62.5 z m 140.625,0 h 93.75 c 8.65624,0 15.625,6.96879 15.625,15.625 0,8.65621 -6.96876,15.625 -15.625,15.625 h -23.4375 -46.875 c -4.32808,0 -7.8125,3.48437 -7.8125,7.8125 v 46.875 c 0,4.32812 3.48442,7.8125 7.8125,7.8125 h 46.875 23.4375 c 8.65624,0 15.625,6.96879 15.625,15.625 0,8.65621 -6.96876,15.625 -15.625,15.625 h -93.75 c -8.65619,0 -15.625,-6.96879 -15.625,-15.625 v -93.75 c 0,-8.65621 6.96881,-15.625 15.625,-15.625 z m 52.39844,43.63281 c 1.99703,2e-5 3.99128,0.76471 5.52149,2.29492 3.06045,3.06043 3.06045,7.99034 0,11.05079 l -5.52149,5.52148 5.52149,5.52148 c 3.06045,3.06045 3.06045,7.99037 0,11.05079 -3.06042,3.06045 -7.98448,3.06045 -11.04493,0 l -11.04883,-11.05079 c -3.06041,-3.06039 -3.06043,-7.98257 0,-11.04296 l 11.04883,-11.05079 c 1.53023,-1.53021 3.52644,-2.29492 5.52344,-2.29492 z m 16.66016,11.05469 h 46.875 c 4.32812,0 7.8125,3.48437 7.8125,7.8125 0,4.3281 -3.48438,7.8125 -7.8125,7.8125 h -46.875 c -4.32811,0 -7.8125,-3.4844 -7.8125,-7.8125 0,-4.32813 3.48438,-7.8125 7.8125,-7.8125 z" />
  </g>
</svg>
