<?xml version="1.0" encoding="UTF-8" standalone="no"?>
<!-- Created with Inkscape (http://www.inkscape.org/) -->

<svg
   width="6144"
   height="1536"
   viewBox="0 0 1625.6 406.4"
   version="1.1"
   id="svg1"
   inkscape:export-filename="login_cover.svg"
   inkscape:export-xdpi="100"
   inkscape:export-ydpi="100"
   xmlns:inkscape="http://www.inkscape.org/namespaces/inkscape"
   xmlns:sodipodi="http://sodipodi.sourceforge.net/DTD/sodipodi-0.dtd"
   xmlns="http://www.w3.org/2000/svg"
   xmlns:svg="http://www.w3.org/2000/svg">
  <sodipodi:namedview
     id="namedview1"
     pagecolor="#ffffff"
     bordercolor="#666666"
     borderopacity="1.0"
     inkscape:showpageshadow="2"
     inkscape:pageopacity="0.0"
     inkscape:pagecheckerboard="0"
     inkscape:deskcolor="#d1d1d1"
     inkscape:document-units="px" />
  <defs
     id="defs1" />
  <g
     inkscape:label="Layer 1"
     inkscape:groupmode="layer"
     id="layer1">
    <path
       id="rect15-1"
       style="fill:#000000;fill-opacity:1;stroke:none;stroke-width:0;stroke-linecap:round;stroke-linejoin:round"
       d="M 14.5014,0 V 0.9529 28.0463 H 0 V 54.5052 H 14.5014 V 81.5981 H 0 v 27.0934 h 14.5014 v 27.0929 27.0935 27.0934 H 0 v 26.4584 h 14.5014 v 27.0934 H 0 v 27.0934 h 14.5014 v 27.0929 27.0935 27.0929 H 0 v 26.4589 h 14.5019 v 27.0929 H 0 V 406.4 h 41.5949 v -0.9524 -27.0929 h 27.0934 v 27.0929 0.9524 h 27.0929 v -0.9524 h 16.2569 l -5e-4,-5e-4 H 95.7812 v -27.093 h 27.0935 L 139.7021,406.4 h 37.3589 v -0.9524 -27.0929 h 27.0934 v 27.0929 0.9524 h 26.4584 v -0.9519 -27.0934 h 27.0929 v 27.0934 0.9519 h 108.3732 v -0.9524 -27.0929 h 27.0935 27.0929 l 27.0934,-6e-4 h 27.0929 v 27.0935 0.9524 h 27.0935 v -0.9524 -27.0935 h 27.0929 27.0934 27.093 27.0934 v 27.0935 H 582.8244 555.7314 528.638 V 406.4 h 108.3732 v -0.9524 -27.0929 h 27.093 v 27.0929 0.9524 h 27.0934 v -0.9524 h 16.2564 l -6e-4,-5e-4 h -16.2558 v -27.0935 h 27.0929 L 735.1184,406.4 h 37.359 v -0.9524 -27.0929 h 27.0929 v 27.0929 0.9524 h 26.4599 v -0.9529 -27.0935 h 27.0934 v 27.0935 0.9529 h 108.3727 v -0.9529 -27.0935 h 27.093 27.0934 27.0934 27.0929 v 27.0935 0.9529 h 27.0935 v -0.9529 -27.0935 h 27.0929 27.0934 27.093 27.0934 v 27.0935 h -27.0934 -27.093 -27.0934 V 406.4 h 108.3732 v -0.9529 -27.0935 h 27.093 v 27.0935 0.9529 h 27.0934 v -0.9529 h 16.2564 l -6e-4,-6e-4 h -16.2558 v -27.0934 h 27.0929 l 16.8284,28.0469 h 37.3585 v -0.9529 -27.0935 h 27.0929 v 27.0935 0.9529 h 26.4583 v -0.9529 -27.093 h 27.093 v 27.093 0.9529 h 108.3732 v -0.9529 -27.0935 h 27.0934 27.0929 14.5015 v -26.4583 h -14.5015 -27.0934 -27.0929 V 324.8024 297.7089 270.616 243.5226 216.4291 h 27.0934 27.0929 14.5015 v -26.4583 h -14.5015 -27.0934 -27.0929 V 162.8774 135.7844 108.691 81.5976 54.5047 l 27.0934,-6e-4 h 27.0929 14.5015 V 28.0458 h -14.502 -27.0929 -27.0934 V 0.9524 0 H 1448.539 v 0.9524 h 27.0929 27.0934 27.0929 v 27.0934 h -27.0929 -27.0934 -27.0929 -27.0935 V 0.9524 0 h -26.4583 v 0.9524 27.0924 5e-4 h -27.0929 v -5e-4 L 1351.0674,0 h -37.3595 v 0.9518 h -27.0934 V 0 h -27.0935 v 0.9524 27.0929 h -27.0929 V 0.9524 0 h -27.0934 v 0.9524 27.0929 h -27.0935 -27.0929 -27.0934 -27.0929 V 0.9524 0 h -27.0935 v 0.9524 27.0929 h -27.0929 -27.0934 -27.0929 -27.0935 V 0.9524 0 H 853.1231 v 0.9524 h 27.0929 27.0935 27.0929 V 28.0453 H 907.3095 880.216 853.1231 826.0297 V 0.9524 0 h -26.4599 v 0.9529 27.0924 0 h -27.0929 v 0 L 755.65,0 H 718.29 V 0.9524 H 691.1971 V 0 H 664.1036 V 0.9529 28.0463 H 637.0107 V 0.9529 0 H 609.9173 V 0.9529 28.0463 H 582.8238 555.7309 528.6375 501.544 V 0.9529 0 H 474.4511 V 0.9529 28.0463 H 447.3577 420.2648 393.1713 366.0784 V 0.9534 0 H 257.7052 v 0.9534 h 27.0934 27.0935 27.0929 V 28.0463 H 311.8921 284.7986 257.7052 230.6123 V 0.9534 0 h -26.4584 v 0.9529 27.0929 5e-4 H 177.061 v -5e-4 L 160.2336,0 H 122.8741 V 0.9524 H 95.7812 V 0 H 68.6878 V 0.9529 28.0463 H 41.5943 V 0.9529 0 Z m 378.6699,0 v 0.9534 h 27.0935 27.0929 V 0 Z m 135.4662,0 v 0.9529 h 27.0934 27.0935 V 0 Z m 459.9518,0 v 0.9524 h 27.0929 27.0934 V 0 Z m 135.4656,0 v 0.9524 h 27.0934 27.0929 V 0 Z m 459.9502,0 v 0.9524 h 27.0929 14.502 V 0 Z m -297.3906,0.9524 h 27.0929 v 27.0929 h -27.0929 z M 95.7812,0.9529 h 27.0929 V 28.0463 H 95.7812 Z m 595.4159,0 H 718.29 v 27.0934 h -27.0929 z m 595.4174,53.5512 h 27.0934 l 32.5122,54.1869 h -27.0934 l -5.4188,-9.032 v 9.032 27.0924 27.0934 h -27.0934 V 135.7839 108.691 81.5976 h 16.2563 v -5e-4 h -16.2563 z m -1190.8333,6e-4 h 27.0935 l 32.5122,54.1868 h -27.0935 l -5.4187,-9.032 v 9.032 27.0929 27.093 H 95.7812 v -27.093 -27.0929 -27.0934 h 16.2564 l -5e-4,-5e-4 H 95.7812 Z m 351.577,0 h 27.0934 v 27.0934 27.0934 27.0929 l -5e-4,27.0935 v 27.0934 H 447.3582 420.2648 393.1719 366.0784 V 162.8779 135.785 108.6915 l 5e-4,-27.0934 V 54.5052 h 27.093 27.0934 z m 54.1864,0 h 27.0934 27.0934 27.093 27.0929 v 27.0934 h -27.0929 -27.093 -27.0934 v 27.0934 27.0929 27.0935 h 27.0929 27.0935 v -27.0935 -27.0929 h 27.0929 v 27.0929 27.0935 27.0934 H 582.8244 555.7309 528.6375 501.5446 V 162.8779 135.7844 108.6915 81.5981 Z m 189.653,0 h 27.0929 l 32.5122,54.1868 h -27.0934 l -5.4188,-9.032 v 9.032 27.0924 27.0935 h -27.0934 v -27.093 -27.0929 -27.0934 h 16.2563 l -5e-4,-5e-4 h -16.2553 z m 134.8326,0 h 27.0929 v 27.0929 27.0934 27.0929 27.0935 h 27.0934 27.093 27.0934 v 27.0929 h -27.0934 -27.093 -27.0934 -27.0929 V 162.8774 135.7839 108.691 81.5976 Z m 135.4661,0 h 27.093 27.0934 27.0929 27.0934 v 27.0929 27.0934 27.0929 27.0935 27.0929 h -27.0934 -27.0929 -27.0934 -27.093 V 162.8774 135.7839 108.691 81.5976 Z m 135.4657,0 h 27.0934 27.0929 27.0935 27.0929 v 27.0929 h -27.0929 -27.0935 -27.0929 v 27.0934 27.0929 27.0935 h 27.0929 27.0935 V 135.7839 108.691 h 27.0929 v 27.0929 27.0935 27.0929 h -27.0929 -27.0935 -27.0929 -27.0934 V 162.8774 135.7839 108.691 81.5976 Z m 135.4661,0 h 27.0935 v 27.0929 27.0934 27.0929 27.0935 27.0929 h -27.0935 V 162.8774 135.7839 108.691 81.5976 Z m 135.4662,0 h 27.0934 v 27.0929 27.0934 27.0929 27.0935 27.0924 5e-4 h -27.0934 v -5e-4 l -32.5112,-54.1859 h 27.0929 l 5.4183,9.0305 V 135.7839 108.691 81.5976 Z m 53.5517,0 h 27.093 v 27.0929 27.0934 27.0934 27.093 h 27.0934 27.0929 27.0935 v 27.0934 h -27.0935 -27.0929 -27.0934 -27.093 V 162.8774 135.7844 108.691 81.5976 Z m -1379.8511,5e-4 h 27.0929 v 27.0929 27.0934 27.0929 27.0935 27.0934 H 41.5949 V 162.8779 135.7844 108.6915 81.5981 Z m 135.4661,0 h 27.0929 v 27.0929 27.0934 27.0929 27.0935 27.0929 5e-4 H 177.061 v -5e-4 l -32.5112,-54.1864 h 27.0929 l 5.4183,9.0305 v -9.0305 -27.0929 -27.0934 z m 53.5513,0 h 27.0934 v 27.0934 27.0929 27.0935 27.0929 h 27.0934 27.093 27.0929 v 27.0934 h -27.0929 -27.093 -27.0934 -27.0934 V 162.8779 135.785 108.6915 81.5986 Z m 406.3989,0 h 27.093 v 27.0929 27.0934 27.0929 27.0935 27.0929 h -27.093 V 162.8779 135.7844 108.6915 81.5981 Z m 135.4657,0 h 27.0934 v 27.0929 27.0934 27.0929 27.0935 27.0924 5e-4 h -27.0934 v -5e-4 l -32.5112,-54.1859 h 27.0934 l 5.4178,9.0305 v -9.0305 -27.0929 -27.0934 z m 216.1124,27.0924 v 27.0934 27.0929 27.0935 h 27.0934 27.0929 V 135.7839 108.691 81.5976 h -27.0929 z m 595.4163,0 -5e-4,27.0934 v 27.0934 27.093 h 27.0934 14.5015 V 81.5976 h -14.5015 z m -1190.8337,5e-4 v 27.0934 27.0935 27.0929 h 27.0929 27.0934 V 135.785 108.6915 81.5981 h -27.0929 z m 608.9643,27.0929 h 27.093 v 27.0929 h -27.093 z m 135.4657,0 h 27.0934 v 27.0929 h -27.0934 z m 459.9502,0 h 27.0929 v 27.0929 l -27.0929,5e-4 z m -1190.8338,5e-4 h 27.0934 v 27.0935 h -27.0934 z m 135.4662,0 h 27.0934 v 27.0929 h -27.0934 z m 744.43,54.1859 h 27.0934 v 27.0929 h -27.0934 z m -1190.8333,5e-4 h 27.0935 v 27.0934 H 95.7812 Z m 595.4164,0 h 27.0929 v 27.0929 h -27.0929 z m 595.4169,53.5507 h 27.0934 l 32.5122,54.1869 h -27.0934 l -5.4188,-9.0315 v 9.0315 27.0929 27.0929 h -27.0934 v -27.0924 -27.0934 -27.0929 h 16.2563 v -5e-4 h -16.2563 z m -595.4169,5e-4 h 27.0929 l 32.5122,54.1869 h -27.0934 l -5.4188,-9.0315 v 9.0315 27.0929 27.0929 H 691.1971 V 297.7094 270.616 243.5231 h 16.2563 l -5e-4,-5e-4 h -16.2553 z m 134.8326,0 h 27.0929 v 27.0935 27.0929 27.0934 27.0929 h 27.0934 27.093 27.0934 v 27.0935 h -27.0934 -27.093 -27.0934 -27.0929 v -27.0935 -27.0929 -27.0934 -27.0929 z m 135.4661,0 h 27.093 27.0934 27.0929 27.0934 v 27.0935 27.0929 27.0934 27.0929 27.0935 h -27.0934 -27.0929 -27.0934 -27.093 v -27.0935 -27.0929 -27.0934 -27.0929 z m 135.4657,0 h 27.0934 27.0929 27.0935 27.0929 v 27.0935 h -27.0929 -27.0935 -27.0929 v 27.0929 27.0934 27.0929 h 27.0929 27.0935 v -27.0929 -27.0934 h 27.0929 v 27.0934 27.0929 27.0935 h -27.0929 -27.0935 -27.0929 -27.0934 v -27.0935 -27.0929 -27.0934 -27.0929 z m 135.4661,0 h 27.0935 v 27.0935 27.0929 27.0934 27.0929 27.0935 h -27.0935 v -27.0935 -27.0929 -27.0934 -27.0929 z m 135.4662,0 h 27.0934 v 27.0935 27.0929 27.0934 27.0929 27.093 5e-4 h -27.0934 v -5e-4 l -32.5112,-54.1859 h 27.0929 l 5.4183,9.03 v -9.03 -27.0934 -27.0929 z m -1326.2994,6e-4 h 27.0929 v 27.0934 27.0934 27.0929 27.0935 27.0929 H 41.5949 v -27.0929 -27.0935 -27.0929 -27.0934 z m 54.1863,0 h 27.0935 l 32.5122,54.1868 h -27.0935 l -5.4187,-9.032 v 9.032 27.0924 27.0935 H 95.7812 v -27.093 -27.0929 -27.0934 h 16.2564 l -5e-4,-5e-4 H 95.7812 Z m 81.2798,0 h 27.0929 v 27.0934 27.0934 27.0929 27.0935 27.0924 5e-4 H 177.061 v -5e-4 l -32.5112,-54.1859 h 27.0929 l 5.4183,9.0305 v -9.0305 -27.0929 -27.0934 z m 189.0179,0 h 27.093 27.0934 27.0929 27.0934 v 27.0934 27.0934 27.0929 l -5e-4,27.0935 v 27.0934 h -27.0929 -27.0934 -27.0929 -27.0935 v -27.0934 -27.0935 -27.0929 l 5e-4,-27.0934 z m 135.4657,0 h 27.0934 27.0934 27.093 27.0929 v 27.0934 h -27.0929 -27.093 -27.0934 v 27.0929 27.0934 27.0935 h 27.0929 l 27.0935,-5e-4 v -27.093 -27.0934 h 27.0929 v 27.0934 27.093 27.0934 h -27.0929 -27.0935 -27.0934 l -27.0929,5e-4 V 324.8029 297.7094 270.616 243.5231 Z m 135.4666,0 h 27.093 v 27.0934 27.0929 27.0934 27.093 27.0934 h -27.093 v -27.0934 -27.093 -27.0934 -27.0929 z m 135.4657,0 h 27.0934 v 27.0934 27.0929 27.0934 27.093 27.0929 5e-4 h -27.0934 v -5e-4 l -32.5112,-54.1859 h 27.0934 l 5.4178,9.03 v -9.03 -27.0934 -27.0929 z m 648.9691,0 h 27.093 v 27.0929 27.0934 27.0929 27.0935 h 27.0934 27.0929 27.0935 v 27.0929 h -27.0935 -27.0929 -27.0934 -27.093 V 324.8024 297.7089 270.616 243.5226 Z m -1190.8337,5e-4 h 27.0934 v 27.0929 27.0934 27.0929 27.0935 h 27.0934 27.093 27.0929 v 27.0934 h -27.0929 -27.093 -27.0934 -27.0934 v -27.0934 -27.0935 -27.0929 -27.0934 z m 1394.9877,27.0919 -14.5015,5e-4 h -27.0929 l -5e-4,27.0929 v 27.0934 27.0935 h 27.0934 14.5015 z m -637.0107,5e-4 v 27.0929 27.0934 27.0929 h 27.0934 27.0929 v -27.0929 -27.0934 -27.0929 h -27.0929 z m -595.4174,5e-4 v 27.0934 27.0929 27.0935 h 27.0929 27.0934 v -27.0935 -27.0929 -27.0934 h -27.0929 z m 608.9643,27.0924 h 27.093 v 27.0934 h -27.093 z m 135.4657,0 h 27.0934 v 27.0934 h -27.0934 z m 459.9502,0 h 27.0929 v 27.0934 h -27.0929 z m -1055.3676,5e-4 h 27.0934 v 27.0934 h -27.0934 z m -135.4662,5e-4 h 27.0934 v 27.0929 h -27.0934 z m 879.8962,54.1853 h 27.0934 v 27.0935 h -27.0934 z m -595.4169,6e-4 h 27.0929 v 27.0934 h -27.0929 z m -595.4164,5e-4 h 27.0935 v 27.0929 H 95.7812 Z m 892.8086,80.6442 V 406.4 h 54.1863 v -0.9529 h -27.0934 z m 595.4158,0 V 406.4 H 1625.6 v -0.9529 h -14.5015 z m -1190.8332,5e-4 V 406.4 h 54.1863 v -0.9524 h -27.0934 z" />
  </g>
</svg>
