<?xml version="1.0" encoding="UTF-8" standalone="no"?>
<!-- Created with Inkscape (http://www.inkscape.org/) -->

<svg
   width="500.00003"
   height="499.99985"
   viewBox="0 0 132.29167 132.29163"
   version="1.1"
   id="svg1"
   inkscape:export-filename="verification_cover.svg"
   inkscape:export-xdpi="100"
   inkscape:export-ydpi="100"
   inkscape:version="1.3.2 (1:1.3.2+202311252150+091e20ef0f)"
   sodipodi:docname="cover.svg"
   xml:space="preserve"
   xmlns:inkscape="http://www.inkscape.org/namespaces/inkscape"
   xmlns:sodipodi="http://sodipodi.sourceforge.net/DTD/sodipodi-0.dtd"
   xmlns="http://www.w3.org/2000/svg"
   xmlns:svg="http://www.w3.org/2000/svg"><sodipodi:namedview
     id="namedview1"
     pagecolor="#ffffff"
     bordercolor="#666666"
     borderopacity="1.0"
     inkscape:showpageshadow="2"
     inkscape:pageopacity="0.0"
     inkscape:pagecheckerboard="0"
     inkscape:deskcolor="#d1d1d1"
     inkscape:document-units="px"
     inkscape:zoom="0.044194174"
     inkscape:cx="-17027.131"
     inkscape:cy="-45.254834"
     inkscape:window-width="1868"
     inkscape:window-height="1016"
     inkscape:window-x="52"
     inkscape:window-y="27"
     inkscape:window-maximized="1"
     inkscape:current-layer="layer1" /><defs
     id="defs1" /><g
     inkscape:label="Layer 1"
     inkscape:groupmode="layer"
     id="layer1"
     transform="translate(5183.4487,-165.4612)"><path
       id="rect39"
       style="fill:#000000;fill-opacity:1;stroke:none;stroke-width:0;stroke-linecap:round;stroke-linejoin:round;stroke-dasharray:none;stroke-opacity:1"
       d="m -5183.4487,165.46118 v 132.29164 h 132.2917 V 165.46118 Z m 48.1403,33.84805 a 16.148883,16.148883 0 0 1 16.1489,16.14889 16.148883,16.148883 0 0 1 -16.1489,16.14888 32.297765,32.297765 0 0 1 32.2979,32.29776 h -64.5956 a 32.297765,32.297765 0 0 1 32.2977,-32.29776 16.148883,16.148883 0 0 1 -16.1488,-16.14888 16.148883,16.148883 0 0 1 16.1488,-16.14889 z m 36.3351,0 h 24.2233 c 2.2366,0 4.0372,1.80061 4.0372,4.03722 0,2.23661 -1.8006,4.03723 -4.0372,4.03723 h -6.0559 -12.1117 c -1.1182,0 -2.0185,0.90029 -2.0185,2.0186 v 12.11167 c 0,1.11831 0.9003,2.01861 2.0185,2.01861 h 12.1117 6.0559 c 2.2366,0 4.0372,1.80061 4.0372,4.03722 0,2.23661 -1.8006,4.03722 -4.0372,4.03722 h -24.2233 c -2.2367,0 -4.0372,-1.80061 -4.0372,-4.03722 v -24.22333 c 0,-2.23661 1.8005,-4.03722 4.0372,-4.03722 z m 27.0988,11.27394 v 0 c 0.5155,2.6e-4 1.0306,0.19791 1.4256,0.59297 l 2.8553,2.85482 c 0.346,0.34595 0.5407,0.78453 0.5839,1.23438 0.01,0.0643 0.01,0.12824 0.01,0.19278 0,0.48373 -0.1738,0.9681 -0.5213,1.35247 -0.023,0.0257 -0.047,0.0494 -0.071,0.0742 l -2.8553,2.85532 c -0.7908,0.79076 -2.063,0.79076 -2.8539,0 -0.7907,-0.79076 -0.7907,-2.06456 0,-2.85532 l 1.4283,-1.42666 -1.4283,-1.42715 c -0.7907,-0.79076 -0.7907,-2.06406 0,-2.85482 0.3952,-0.39506 0.9117,-0.59245 1.4272,-0.59297 z m -16.4164,2.85634 h 12.1117 c 1.1183,0 2.0186,0.90029 2.0186,2.01861 0,1.1183 -0.9003,2.01861 -2.0186,2.01861 h -12.1117 c -1.1183,0 -2.0186,-0.90031 -2.0186,-2.01861 0,-1.11832 0.9003,-2.01861 2.0186,-2.01861 z"
       inkscape:export-filename="logout-black.svg"
       inkscape:export-xdpi="100"
       inkscape:export-ydpi="100" /></g></svg>
