<?xml version="1.0" encoding="UTF-8" standalone="no"?>
<!-- Created with Inkscape (http://www.inkscape.org/) -->

<svg
   width="176"
   height="40"
   viewBox="0 0 46.566667 10.583333"
   version="1.1"
   id="svg1"
   inkscape:export-filename="verification_cover.svg"
   inkscape:export-xdpi="100"
   inkscape:export-ydpi="100"
   inkscape:version="1.3.2 (1:1.3.2+202311252150+091e20ef0f)"
   sodipodi:docname="cover.svg"
   xml:space="preserve"
   xmlns:inkscape="http://www.inkscape.org/namespaces/inkscape"
   xmlns:sodipodi="http://sodipodi.sourceforge.net/DTD/sodipodi-0.dtd"
   xmlns="http://www.w3.org/2000/svg"
   xmlns:svg="http://www.w3.org/2000/svg"><sodipodi:namedview
     id="namedview1"
     pagecolor="#ffffff"
     bordercolor="#666666"
     borderopacity="1.0"
     inkscape:showpageshadow="2"
     inkscape:pageopacity="0.0"
     inkscape:pagecheckerboard="0"
     inkscape:deskcolor="#d1d1d1"
     inkscape:document-units="px"
     inkscape:zoom="0.06113981"
     inkscape:cx="-13689.935"
     inkscape:cy="-4612.3794"
     inkscape:window-width="1868"
     inkscape:window-height="1016"
     inkscape:window-x="52"
     inkscape:window-y="27"
     inkscape:window-maximized="1"
     inkscape:current-layer="layer1"
     inkscape:export-bgcolor="#ffffff00" /><defs
     id="defs1" /><g
     inkscape:label="Layer 1"
     inkscape:groupmode="layer"
     id="layer1"
     transform="translate(9662.0557,2857.5027)"><path
       id="rect7"
       style="fill:#000000;stroke-width:0.0138266"
       d="m -9662.0547,-2857.5026 v 5.1858 h 11.1124 v 1.9579 h 12.2765 v 3.4396 h 23.1773 v -5.1858 h -11.1124 v -1.9579 h -12.2766 v -0.2117 -3.2279 z m 23.3889,0 v 3.2279 h 12.2765 v 1.9579 h 10.9008 v -5.1858 z m -11.2182,3.9688 0.635,1.0583 h -0.5292 l -0.1058,-0.1764 v 0.1764 0.5291 0.5292 0.5292 h -0.5292 v -0.5292 -0.5292 -0.5291 -0.5292 -0.5291 z m 13.229,0 0.635,1.0583 h -0.5291 l -0.1059,-0.1764 v 0.1764 0.5291 0.5292 0.5292 h -0.5291 v -0.5292 -0.5292 -0.5291 -0.5292 -0.5291 z m -8.4666,0 h 0.5292 v 0.5291 0.5292 0.5291 0.5292 0.5292 h -0.5292 v -0.5292 -0.5292 -0.5291 -0.5292 z m 1.5875,0 h 0.5292 v 0.5291 0.5292 0.5291 0.5292 0.5292 h -0.5292 v -0.5292 -0.5292 -0.5291 -0.5292 z m -4.2333,0 h 0.5292 0.5292 0.5291 0.5292 v 0.5291 h -0.5292 -0.5291 -0.5292 v 0.5292 0.5292 0.5291 h 0.5292 0.5291 0.5292 v 0.5292 h -0.5292 -0.5291 -0.5292 -0.5292 v -0.5292 -0.5291 -0.5292 -0.5292 z m 5.2916,0 h 0.5292 0.5292 0.5291 l 0.5292,0.5291 h -0.5292 -0.5291 -0.5292 -0.5292 z m 2.6459,0 h 0.5291 0.5292 0.5291 0.5292 v 0.5291 0.5292 0.5292 0.5291 0.5292 h -0.5292 v -0.5292 -0.5291 -0.5292 -0.5292 h -0.5291 -0.5292 v 0.5292 0.5292 0.5291 0.5292 h -0.5291 v -0.5292 -0.5291 -0.5292 -0.5292 z m 5.2916,0 h 0.5291 0.5292 0.5291 l 0.5292,0.5291 v 0.5292 0.5291 0.5292 l -0.5292,0.5292 h -0.5291 -0.5292 -0.5291 v -0.5292 -0.5291 -0.5292 -0.5292 z m 2.6458,0 h 0.5291 0.5292 0.5292 0.5291 v 0.5291 0.5292 0.5292 0.5291 0.5292 h -0.5291 -0.5292 -0.5292 -0.5291 v -0.5292 -0.5291 -0.5292 -0.5292 z m 2.6458,0 h 0.5291 v 0.5291 0.5292 0.5292 0.5291 0.5292 h -0.5291 v -0.5292 -0.5291 -0.5292 -0.5292 z m 0.7937,0 h 0.5292 v 0.5291 0.5292 0.5292 l -0.2646,0.5291 -0.2646,-0.5291 v -0.5292 -0.5292 z m 0.7938,0 h 0.5291 v 0.5291 0.5292 0.5292 0.5291 0.5292 h -0.5291 v -0.5292 -0.5291 -0.5292 -0.5292 z m -21.1665,0 h 0.5292 v 0.5291 0.5292 0.5292 0.5291 0.5292 h -0.5292 v 0 0 l -0.635,-1.0583 h 0.5292 l 0.1058,0.1763 v -0.1763 -0.5292 -0.5292 z m 13.229,0 h 0.5292 v 0.5291 0.5292 0.5292 0.5291 0.5292 h -0.5292 v 0 0 l -0.6349,-1.0583 h 0.5291 l 0.1058,0.1763 v -0.1763 -0.5292 -0.5292 z m -8.4665,0.5291 0.2645,0.5292 v 0.5291 0.5292 0.5292 h -0.5291 v -0.5292 -0.5292 -0.5291 z m 12.6998,0 v 0.5292 0.5292 0.5291 h 0.5292 0.5292 v -0.5291 -0.5292 -0.5292 h -0.5292 z m -11.1123,0 h 0.5291 v 0.5292 0.5292 0.5291 0.5292 h -0.5291 v -0.5292 -0.5291 -0.5292 z m 8.4665,0 v 0.5292 0.5291 0.5292 h 0.5292 0.5291 v -0.5291 -0.5292 -0.5292 h -0.5291 z m -5.027,0.5292 h 0.5291 v 0.5292 h -0.5291 z m 7.9374,0 h 0.5292 v 0.5292 h -0.5292 z m -15.6102,0 h 0.5291 0.5292 v 0.5292 h -0.5292 -0.5291 z m 5.2916,0 h 0.5291 0.5292 l -0.5292,0.5292 h -0.5291 z m 7.6728,0 h 0.5292 v 0.5292 h -0.5292 z m -28.3101,0.3704 v 5.1858 h 23.1772 v -3.2279 h -12.2765 v -0.2117 -1.7462 z"
       inkscape:export-filename="new-fandom-cover-blacke.svg"
       inkscape:export-xdpi="100"
       inkscape:export-ydpi="100" /></g></svg>
