<?xml version="1.0" encoding="UTF-8" standalone="no"?>
<!-- Created with Inkscape (http://www.inkscape.org/) -->

<svg
   width="216"
   height="40"
   viewBox="0 0 57.15 10.583333"
   version="1.1"
   id="svg1"
   inkscape:export-filename="verification_cover.svg"
   inkscape:export-xdpi="100"
   inkscape:export-ydpi="100"
   inkscape:version="1.3.2 (1:1.3.2+202311252150+091e20ef0f)"
   sodipodi:docname="cover.svg"
   xml:space="preserve"
   xmlns:inkscape="http://www.inkscape.org/namespaces/inkscape"
   xmlns:sodipodi="http://sodipodi.sourceforge.net/DTD/sodipodi-0.dtd"
   xmlns="http://www.w3.org/2000/svg"
   xmlns:svg="http://www.w3.org/2000/svg"><sodipodi:namedview
     id="namedview1"
     pagecolor="#ffffff"
     bordercolor="#666666"
     borderopacity="1.0"
     inkscape:showpageshadow="2"
     inkscape:pageopacity="0.0"
     inkscape:pagecheckerboard="0"
     inkscape:deskcolor="#d1d1d1"
     inkscape:document-units="px"
     inkscape:zoom="0.32"
     inkscape:cx="-23650"
     inkscape:cy="-1625"
     inkscape:window-width="1868"
     inkscape:window-height="1016"
     inkscape:window-x="52"
     inkscape:window-y="27"
     inkscape:window-maximized="1"
     inkscape:current-layer="layer1"
     inkscape:export-bgcolor="#ffffff00" /><defs
     id="defs1" /><g
     inkscape:label="Layer 1"
     inkscape:groupmode="layer"
     id="layer1"
     transform="translate(8927.29,1876.8413)"><path
       id="rect10"
       style="fill:#000000;stroke:none;stroke-width:0.320498"
       d="m -8927.2899,-1876.8412 v 5.1529 h 13.6262 v 0.2776 h -1e-4 v 1.8455 h 15.0877 v 3.3073 h 28.4359 v -5.1528 h -13.3486 -0.2775 -2e-4 v -2.123 h -15.0874 v -0.2778 h 10e-5 v -3.0297 z m 28.7138,0 v 3.0297 h 14.8096 0.2777 2e-4 v 0.2778 h -2e-4 v 1.8454 h 13.3486 v -5.1529 z m -14.4265,3.9688 h 0.5293 l 0.635,1.0583 h -0.5292 l -0.1058,-0.1763 v 0.1763 0.5292 0.5291 0.5293 h -0.5293 v -0.5293 -0.5291 -0.5292 -0.5291 z m 1.5876,0 h 0.5292 v 0.5292 0.5291 0.5292 0.5293 0.5291 h -0.5292 l -0.635,-1.0584 h 0.5292 l 0.1058,0.1764 v -0.1764 -0.5292 -0.5291 z m 1.0583,0 h 0.5292 0.5291 0.5292 0.5291 v 0.5292 h -0.5291 -0.5292 -0.5291 v 0.5291 0.5292 0.5291 h 0.5291 0.5292 0.5291 v 0.5293 h -0.5291 -0.5292 -0.5291 -0.5292 v -0.5293 -0.5291 -0.5292 -0.5291 z m 2.6458,0 h 0.5292 v 0.5292 0.5291 0.5292 0.5291 0.5293 h -0.5292 v -0.5293 -0.5291 -0.5292 -0.5291 z m 1.5875,0 h 0.5291 v 0.5292 0.5291 0.5292 0.5291 0.5293 h -0.5291 v -0.5293 -0.5291 -0.5292 -0.5291 z m 1.0584,0 h 0.5292 0.5291 0.5292 0.5291 v 0.5292 0.5291 0.5292 h -0.5291 v -0.5292 -0.5291 h -0.5292 -0.5291 v 0.5291 0.5292 0.5291 0.5293 h -0.5292 v -0.5293 -0.5291 -0.5292 -0.5291 z m 2.6458,0 h 0.5291 0.5292 0.5291 0.5292 v 0.5292 0.5291 0.5292 0.5291 0.5293 h -0.5292 v -0.5293 -0.5291 -0.5292 -0.5291 h -0.5291 -0.5292 v 0.5291 0.5292 0.5291 0.5293 h -0.5291 v -0.5293 -0.5291 -0.5292 -0.5291 z m 2.6458,0 h 0.5291 0.5292 0.5291 0.5292 v 0.5292 h -0.5292 -0.5291 -0.5292 v 0.5291 0.5292 l -0.5291,-0.5292 v -0.5291 z m 2.6459,0 h 0.5291 0.5292 0.5291 0.5292 v 0.5292 h -0.5292 -0.5291 -0.5292 v 0.5291 0.5292 l -0.5291,-0.5292 v -0.5291 z m 2.6457,0 h 0.5292 v 0.5292 0.5291 0.5292 0.5291 0.5293 h -0.5292 v -0.5293 -0.5291 -0.5292 -0.5291 z m 1.5875,0 h 0.5292 v 0.5292 0.5291 0.5292 0.5291 0.5293 h -0.5292 v -0.5293 -0.5291 -0.5292 -0.5291 z m 1.0583,0 h 0.5292 0.5292 0.5291 0.5293 v 0.5292 0.5291 0.5292 0.5291 0.5293 h -0.5293 -0.5291 -0.5292 -0.5292 v -0.5293 -0.5291 -0.5292 -0.5291 z m 2.6459,0 h 0.5291 0.5291 0.5293 0.5291 v 0.5292 0.5291 0.5292 h -0.5291 v -0.5292 -0.5291 h -0.5293 -0.5291 v 0.5291 0.5292 0.5291 0.5293 h -0.5291 v -0.5293 -0.5291 -0.5292 -0.5291 z m 2.6458,0 h 0.5292 0.5291 0.5292 l 0.5291,0.5292 v 0.5291 0.5292 0.5291 l -0.5291,0.5293 h -0.5292 -0.5291 -0.5292 v -0.5293 -0.5291 -0.5292 -0.5291 z m -20.1083,0.5292 0.2646,0.5291 v 0.5292 0.5291 0.5293 h -0.5291 v -0.5293 -0.5291 -0.5292 z m 13.2292,0 0.2646,0.5291 v 0.5292 0.5291 0.5293 h -0.5293 v -0.5293 -0.5291 -0.5292 z m 2.1166,0 v 0.5291 0.5292 0.5291 h 0.5292 0.5291 v -0.5291 -0.5292 -0.5291 h -0.5291 z m 5.2917,0 v 0.5291 0.5292 0.5291 h 0.5291 0.5292 v -0.5291 -0.5292 -0.5291 h -0.5292 z m -2.3813,0.2646 h 0.5292 v 0.5292 h -0.5292 z m -20.902,0.2645 h 0.5292 0.5291 v 0.5292 h -0.5291 -0.5292 z m 5.0271,0 h 0.5291 v 0.5292 h -0.5291 z m 2.6459,0 h 0.529 v 0.5292 h -0.529 z m 2.6458,0 h 0.5291 v 0.5292 h -0.5291 z m 0.7936,0 0.5292,0.5292 v 0.5291 0.5293 h -0.5292 -0.5291 -0.5292 -0.5291 v -0.5293 h 0.5291 0.5292 0.5291 v -0.5291 z m 1.8522,0 h 0.5291 v 0.5292 h -0.5291 z m 0.7937,0 0.5292,0.5292 v 0.5291 0.5293 h -0.5292 -0.5291 -0.5292 -0.5291 v -0.5293 h 0.5291 0.5292 0.5291 v -0.5291 z m 4.4979,0 h 0.5292 v 0.5292 h -0.5292 z m 5.2916,0 h 0.5292 v 0.5292 h -0.5292 z m -41.5393,0.4034 v 5.1528 h 28.4361 v -3.0296 h -14.81 -0.2777 v -2.1232 z m 38.8935,0.1258 h 0.5292 l 0.7937,1.0584 h -0.5291 z" /></g></svg>
