<?xml version="1.0" encoding="UTF-8" standalone="no"?>
<!-- Created with Inkscape (http://www.inkscape.org/) -->

<svg
   width="232.01562"
   height="39.999756"
   viewBox="0 0 61.387467 10.583269"
   version="1.1"
   id="svg1"
   xml:space="preserve"
   xmlns="http://www.w3.org/2000/svg"
   xmlns:svg="http://www.w3.org/2000/svg"><defs
     id="defs1" /><g
     id="layer1"
     transform="translate(6333.3335,700.59845)"><path
       id="rect40"
       style="fill:#ffffff;stroke-width:0.37674"
       d="m -6333.3333,-700.59848 v 5.18573 h 15.0291 5e-4 v 1.74615 h 15.7696 5e-4 v 3.65145 h 30.5878 v -5.18573 h -14.8177 -0.2114 v -0.21187 -1.53427 h -15.5587 -0.2114 -5e-4 v -3.65146 z m 30.7997,0 v 3.43958 h 15.7701 v 1.74615 h 14.8177 v -5.18573 z m -15.4528,3.96875 h 0.5292 l 0.6351,1.05833 h -0.5292 l -0.1059,-0.17673 v 0.17673 0.52917 0.52917 0.52916 h -0.5292 v -0.52916 -0.52917 -0.52917 -0.52916 z m 1.5875,0 h 0.5291 v 0.52917 0.52916 0.52917 0.52917 0.52916 h -0.5291 l -0.6351,-1.05833 h 0.5291 l 0.106,0.17622 v -0.17622 -0.52917 -0.52916 z m 1.0583,0 h 0.5292 0.5292 0.5291 0.5292 v 0.52917 h -0.5292 -0.5291 -0.5292 v 0.52916 0.52917 0.52917 h 0.5292 0.5291 0.5292 v 0.52916 h -0.5292 -0.5291 -0.5292 -0.5292 v -0.52916 -0.52917 -0.52917 -0.52916 z m 2.6464,0 h 0.5291 v 0.52917 0.52916 0.52917 0.52917 0.52916 h -0.5291 v -0.52916 -0.52917 -0.52917 -0.52916 z m 1.5875,0 h 0.5291 v 0.52917 0.52916 0.52917 0.52917 0.52916 h -0.5291 v -0.52916 -0.52917 -0.52917 -0.52916 z m 1.0583,0 h 0.5292 0.5291 0.5292 l 0.5292,0.52917 v 0.52916 0.52917 0.52917 l -0.5292,0.52916 h -0.5292 -0.5291 -0.5292 v -0.52916 -0.52917 -0.52917 -0.52916 z m 2.6458,0 h 0.5292 v 0.52917 0.52916 0.52917 0.52917 0.52916 h -0.5292 v -0.52916 -0.52917 -0.52917 -0.52916 z m 1.0589,0 h 0.5292 0.5291 0.5292 0.5292 v 0.52917 h -0.5292 -0.5292 -0.5291 v 0.52916 0.52917 l -0.5292,-0.52917 v -0.52916 z m 3.175,0 h 0.5292 0.5291 l 0.5292,0.52917 h -0.5292 -0.5291 -0.5292 v 0.52916 0.52917 0.52917 h 0.5292 0.5291 0.5292 l -0.5292,0.52916 h -0.5291 -0.5292 l -0.5292,-0.52916 v -0.52917 -0.52917 -0.52916 z m 2.1167,0 h 0.5296 v 0.52917 0.52916 0.52917 0.52917 h 0.5287 0.5292 v -0.52917 -0.52917 -0.52916 -0.52917 h 0.5296 v 0.52917 0.52916 0.52917 0.52917 l -0.5296,0.52916 h -0.5292 -0.5287 l -0.5296,-0.52916 v -0.52917 -0.52917 -0.52916 z m 2.6463,0 h 0.5292 0.5291 0.5292 0.5292 v 0.52917 h -0.5292 -0.5292 -0.5291 v 0.52916 0.52917 l -0.5292,-0.52917 v -0.52916 z m 2.6458,0 h 0.5292 0.5292 0.5291 0.5292 v 0.52917 h -0.5292 -0.5291 -0.5292 v 0.52916 0.52917 l -0.5292,-0.52917 v -0.52916 z m 2.6459,0 h 0.5297 v 0.52917 0.52916 0.52917 0.52917 0.52916 h -0.5297 v -0.52916 -0.52917 -0.52917 -0.52916 z m 1.0588,0 h 0.5292 0.5292 0.5291 0.5292 v 0.52917 0.52916 0.52917 0.52917 0.52916 h -0.5292 -0.5291 -0.5292 -0.5292 v -0.52916 -0.52917 -0.52917 -0.52916 z m 2.6459,0 h 0.5291 l 0.6351,1.05833 h -0.5291 l -0.106,-0.17621 v 0.17621 0.52917 0.52917 0.52916 h -0.5291 v -0.52916 -0.52917 -0.52917 -0.52916 z m 1.5875,0 h 0.5291 v 0.52917 0.52916 0.52917 0.52917 0.52916 h -0.5291 l -0.6352,-1.05833 h 0.5297 l 0.1055,0.17622 v -0.17622 -0.52917 -0.52916 z m -23.8141,0.52917 0.2646,0.52916 v 0.52917 0.52917 0.52916 h -0.5292 v -0.52916 -0.52917 -0.52917 z m 2.1167,0 v 0.52916 0.52917 0.52917 h 0.5291 0.5292 v -0.52917 -0.52917 -0.52916 h -0.5292 z m 17.9932,0 v 0.52916 0.52917 0.52917 h 0.5292 0.5291 v -0.52917 -0.52917 -0.52916 h -0.5291 z m -8.7318,0.26458 h 0.5287 v 0.52917 h -0.5287 z m -14.0244,0.26458 h 0.5291 0.5292 v 0.52917 h -0.5292 -0.5291 z m 5.0276,0 h 0.5291 v 0.52917 h -0.5291 z m 3.7046,0 h 0.5292 v 0.52917 h -0.5292 z m 0.7938,0 0.5292,0.52917 v 0.52917 0.52916 h -0.5292 -0.5292 -0.5291 -0.5292 v -0.52916 h 0.5292 0.5291 0.5292 v -0.52917 z m 2.1167,0 h 0.5291 v 0.52917 h -0.5291 z m 5.0276,0 h 0.5291 v 0.52917 h -0.5291 z m 0.7937,0 0.5292,0.52917 v 0.52917 0.52916 h -0.5292 -0.5292 -0.5291 -0.5292 v -0.52916 h 0.5292 0.5291 0.5292 v -0.52917 z m 1.8521,0 h 0.5292 v 0.52917 h -0.5292 z m 0.7937,0 0.5292,0.52917 v 0.52917 0.52916 h -0.5292 -0.5291 -0.5292 -0.5292 v -0.52916 h 0.5292 0.5292 0.5291 v -0.52917 z m 2.911,0 h 0.5291 v 0.52917 h -0.5291 z m -42.0719,0.37052 v 5.18573 h 30.5878 v -3.43958 h -15.5582 -0.2119 v -1.74615 z" /></g></svg>
