<?xml version="1.0" encoding="UTF-8" standalone="no"?>
<!-- Created with Inkscape (http://www.inkscape.org/) -->

<svg
   width="195.99609"
   height="40"
   viewBox="0 0 51.8573 10.583333"
   version="1.1"
   id="svg1"
   inkscape:export-filename="verification_cover.svg"
   inkscape:export-xdpi="100"
   inkscape:export-ydpi="100"
   inkscape:version="1.3.2 (1:1.3.2+202311252150+091e20ef0f)"
   sodipodi:docname="cover.svg"
   xml:space="preserve"
   xmlns:inkscape="http://www.inkscape.org/namespaces/inkscape"
   xmlns:sodipodi="http://sodipodi.sourceforge.net/DTD/sodipodi-0.dtd"
   xmlns="http://www.w3.org/2000/svg"
   xmlns:svg="http://www.w3.org/2000/svg"><sodipodi:namedview
     id="namedview1"
     pagecolor="#ffffff"
     bordercolor="#666666"
     borderopacity="1.0"
     inkscape:showpageshadow="2"
     inkscape:pageopacity="0.0"
     inkscape:pagecheckerboard="0"
     inkscape:deskcolor="#d1d1d1"
     inkscape:document-units="px"
     inkscape:zoom="0.11313708"
     inkscape:cx="-16236.939"
     inkscape:cy="-7627.9144"
     inkscape:window-width="1868"
     inkscape:window-height="1016"
     inkscape:window-x="52"
     inkscape:window-y="27"
     inkscape:window-maximized="1"
     inkscape:current-layer="layer1"
     inkscape:export-bgcolor="#ffffff00" /><defs
     id="defs1" /><g
     inkscape:label="Layer 1"
     inkscape:groupmode="layer"
     id="layer1"
     transform="translate(13677.211,3202.303)"><path
       id="rect6-5"
       style="fill:#ffffff;stroke-width:0.0139914"
       d="m -13677.211,-3202.3029 v 5.1858 h 12.435 v 1.9579 h 13.6 v 3.4396 h 25.823 v -5.1858 h -12.224 -0.212 v -0.2117 -1.7462 h -13.599 v -0.2117 -3.2279 z m 26.035,0 v 3.2279 h 13.387 0.212 v 0.2117 1.7462 h 12.224 v -5.1858 z m 5.979,3.9687 0.635,1.0584 h -0.529 l -0.106,-0.1764 v 0.1764 0.5291 0.5292 0.5292 h -0.529 v -0.5292 -0.5292 -0.5291 -0.5292 -0.5291 z m -19.05,10e-5 h 0.53 0.529 0.529 0.529 v 0.5291 0.5292 0.5291 h -0.529 v -0.5291 -0.5292 h -0.529 -0.529 v 0.5292 0.5291 0.5292 0.5292 h -0.53 v -0.5292 -0.5292 -0.5291 -0.5292 z m 2.646,0 h 0.529 0.53 0.529 0.529 v 0.5291 0.5292 0.5291 h -0.529 v -0.5291 -0.5292 h -0.529 -0.53 v 0.5292 0.5291 0.5292 0.5292 h -0.529 v -0.5292 -0.5292 -0.5291 -0.5292 z m 2.646,0 h 0.529 0.529 0.529 0.53 v 0.5291 h -0.53 -0.529 -0.529 v 0.5292 0.5291 0.5292 h 0.529 0.529 0.53 v 0.5292 h -0.53 -0.529 -0.529 -0.529 v -0.5292 -0.5292 -0.5291 -0.5292 z m 2.646,0 h 0.529 0.529 0.529 l 0.529,0.5291 h -0.529 -0.529 -0.529 -0.529 z m 2.646,0 h 0.529 0.529 0.529 0.529 v 0.5291 h -0.529 -0.529 -0.529 v 0.5292 0.5291 0.5292 h 0.529 0.529 0.529 v 0.5292 h -0.529 -0.529 -0.529 -0.529 v -0.5292 -0.5292 -0.5291 -0.5292 z m 2.645,0 h 0.53 0.529 0.529 0.529 v 0.5291 0.5292 0.5291 h -0.529 v -0.5291 -0.5292 h -0.529 -0.529 v 0.5292 0.5291 0.5292 0.5292 h -0.53 v -0.5292 -0.5292 -0.5291 -0.5292 z m 2.646,0 h 0.529 0.529 0.53 0.529 v 0.5291 h -0.529 -0.53 -0.529 v 0.5292 0.5291 0.5292 h 0.529 0.53 0.529 v 0.5292 h -0.529 -0.53 -0.529 -0.529 v -0.5292 -0.5292 -0.5291 -0.5292 z m 5.821,0 h 0.529 0.529 l 0.529,0.5291 h -0.529 -0.529 -0.529 -0.529 z m 2.117,0 h 0.529 0.529 0.529 0.529 v 0.5291 h -0.529 -0.529 -0.529 v 0.5292 0.5291 0.5292 h 0.529 0.529 0.529 v 0.5292 h -0.529 -0.529 -0.529 -0.529 v -0.5292 -0.5292 -0.5291 -0.5292 z m -3.705,0 h 0.53 v 0.5291 0.5292 0.5291 0.5292 0.5292 h -0.53 v -1e-4 l -0.635,-1.0583 h 0.53 l 0.105,0.1764 v -0.1764 -0.5291 -0.5292 z m -12.17,0.5291 h 0.529 v 0.5292 0.5291 0.5292 0.5291 h -0.529 v -0.5291 -0.5292 -0.5291 z m 13.229,0 h 0.529 v 0.5292 0.5291 0.5292 h 0.529 0.529 0.529 l -0.529,0.5291 h -0.529 -0.529 l -0.529,-0.5291 v -0.5292 -0.5291 z m -17.727,0.2646 h 0.529 v 0.5291 h -0.529 z m 10.583,0 h 0.529 v 0.5291 h -0.529 z m 2.91,0.2646 h 0.53 0.529 v 0.5291 h -0.529 -0.53 z m -16.139,0 h 0.529 v 0.5291 h -0.529 z m 5.556,0 h 0.529 0.53 v 0.5291 h -0.53 -0.529 z m 2.646,0 h 0.529 0.529 l -0.529,0.5291 h -0.529 z m 2.646,0 h 0.529 0.529 v 0.5291 h -0.529 -0.529 z m 13.229,0 h 0.529 0.529 v 0.5291 h -0.529 -0.529 z m -2.646,0 h 0.529 v 0.5291 h -0.529 z m -35.189,0.3704 v 5.1858 h 25.823 v -3.2279 h -13.599 v -0.2117 -1.7462 z m 16.404,0.1587 h 0.529 l 0.794,1.0583 h -0.529 z m 10.583,0 h 0.529 l 0.794,1.0583 h -0.529 z" /></g></svg>
