<?xml version="1.0" encoding="UTF-8" standalone="no"?>
<!-- Created with Inkscape (http://www.inkscape.org/) -->

<svg
   width="6144"
   height="1536"
   viewBox="0 0 1625.6 406.4"
   version="1.1"
   id="svg1"
   inkscape:export-filename="register_cover.svg"
   inkscape:export-xdpi="100"
   inkscape:export-ydpi="100"
   xmlns:inkscape="http://www.inkscape.org/namespaces/inkscape"
   xmlns:sodipodi="http://sodipodi.sourceforge.net/DTD/sodipodi-0.dtd"
   xmlns="http://www.w3.org/2000/svg"
   xmlns:svg="http://www.w3.org/2000/svg">
  <sodipodi:namedview
     id="namedview1"
     pagecolor="#ffffff"
     bordercolor="#666666"
     borderopacity="1.0"
     inkscape:showpageshadow="2"
     inkscape:pageopacity="0.0"
     inkscape:pagecheckerboard="0"
     inkscape:deskcolor="#d1d1d1"
     inkscape:document-units="px" />
  <defs
     id="defs1" />
  <g
     inkscape:label="Layer 1"
     inkscape:groupmode="layer"
     id="layer1">
    <path
       id="rect15"
       style="fill:#000000;fill-opacity:1;stroke:none;stroke-width:0;stroke-linecap:round;stroke-linejoin:round"
       d="m 5.82038,0 v 4.7631 h 26.4583 26.4583 26.4584 V 31.2214 H 58.73698 32.27868 5.82038 -2e-5 v 26.4583 h 5.8204 26.4588 26.4583 26.4584 V 84.1375 H 58.73748 32.27918 5.82038 v 26.4584 26.4583 26.4583 h 26.4588 26.4583 26.4584 v 26.4584 H 58.73748 32.27918 5.82038 -2e-5 v 26.4583 h 5.8204 26.4583 26.4583 26.4584 v 26.4583 H 58.73698 32.27868 5.82038 v 26.4584 26.4583 26.4583 h 26.4583 26.4583 26.4584 v 26.4584 H 58.73698 32.27868 5.82038 -2e-5 v 26.4578 h 5.8204 26.4588 26.4583 26.4584 V 401.637 H 58.73748 32.27918 5.82038 v 4.763 h 105.8333 v -4.763 -26.4583 h 26.4588 26.4579 26.4588 26.4583 v 26.4583 h -26.4583 -26.4588 -26.4579 v 4.763 h 105.8329 v -4.763 -26.4583 h 26.4583 v 26.4583 4.763 h 26.4588 v -4.763 -26.4583 h 26.4579 26.4583 26.4588 26.4579 v 26.4583 h -26.4579 -26.4588 -26.4583 v 4.763 h 238.125 v -4.763 -26.4583 h 26.4583 26.4583 26.4584 26.4583 v 26.4583 h -26.4583 -26.4584 -26.4583 v 4.763 h 105.8333 v -4.763 -26.4583 h 26.4584 26.4583 26.4583 26.4584 v 26.4583 4.763 h 26.4583 v -4.7625 -26.4583 h 26.4583 26.4584 26.4583 26.4583 v 26.4583 4.7625 h 26.4584 v -4.763 -26.4583 h 26.4588 26.45832 26.4584 26.4583 v 26.4583 h -26.4583 -26.4584 -26.45832 V 406.4 H 1090.612 v -4.763 -26.4583 h 26.4584 26.4588 26.4583 26.4584 v 26.4583 h -26.4584 -26.4583 -26.4588 v 4.763 h 105.8333 v -4.763 -26.4583 h 26.4583 v 26.4583 4.763 h 26.4584 v -4.763 -26.4583 h 26.4583 26.4583 26.4584 26.4588 v 26.4583 h -26.4588 -26.4584 -26.4583 v 4.763 h 238.125 v -4.763 -26.4583 h 26.4583 26.4584 26.4583 5.8213 v -26.4583 h -5.8213 -26.4583 -26.4584 -26.4583 V 322.262 295.8037 269.3454 242.887 216.4287 h 26.4583 26.4584 26.4583 5.8213 v -26.4578 h -5.8208 -26.4583 -26.4584 -26.4583 V 163.5125 137.0542 110.5959 84.1375 57.6792 h 26.4583 26.4584 26.4583 5.8208 V 31.2214 h -5.8213 -26.4583 -26.4584 -26.4583 V 4.7631 0 h -66.1458 v 4.7631 26.4583 h -26.4584 V 4.7631 0 h -66.1458 v 4.7631 26.4583 h -26.4583 -26.4584 -26.4583 -26.4583 V 4.7631 h 26.4583 26.4583 26.4584 V 0 H 1249.362 v 4.7631 26.4583 h -26.4583 V 4.7631 0 h -26.4583 v 4.7631 26.4583 h -26.4584 -26.4583 -26.4583 -26.4584 V 4.7631 0 H 984.77868 v 4.7631 h 26.45832 26.4584 26.4583 v 26.4583 h -26.4583 -26.4584 -26.45832 -26.4583 V 4.7631 0 h -49.8745 l 23.4161,31.2214 h -26.4583 L 881.98748,0 h -29.5005 v 4.7631 26.4583 h -26.4583 V 4.7636 0 h -49.8745 l 23.4162,31.2214 h -26.4584 L 749.69588,0 h -29.5005 v 4.7631 26.4583 h -26.4584 V 4.7631 0 h -105.8333 v 4.7631 h 26.4583 26.4584 26.4583 v 26.4583 h -26.4583 -26.4584 -26.4583 -26.4583 V 4.7631 0 h -66.1459 v 4.7631 26.4583 h -26.4583 V 4.7631 0 h -66.1458 v 4.7631 26.4583 h -26.4584 -26.4583 -26.4583 -26.4584 V 4.7631 h 26.4584 26.4583 26.4583 V 0 h -105.8333 v 4.7631 26.4583 h -26.4583 V 4.7631 0 h -26.4584 v 4.7631 26.4583 h -26.4583 -26.4583 -26.4584 -26.4583 V 4.7631 0 Z m 132.2916,0 v 4.7631 h 26.4584 26.4583 V 0 Z m 978.95842,0 v 4.7631 h 26.4583 26.4583 V 0 Z m 449.7916,0 v 4.7631 h 26.4584 26.4583 5.8213 V 0 Z M 958.32088,57.6792 h 26.4583 26.45832 26.4584 26.4583 v 26.4583 h -26.4583 -26.4584 -26.45832 v 26.4584 26.4583 26.4583 h 26.45832 26.4584 26.4583 v 26.4584 h -26.4583 -26.4584 -26.45832 -26.4583 V 163.5125 137.0542 110.5959 84.1375 Z m 132.29162,0 h 26.4584 26.4583 26.4583 26.4584 v 26.4583 h -26.4584 -26.4583 -26.4583 v 26.4584 26.4583 26.4583 h 26.4583 26.4583 v -26.4583 -26.4583 h 26.4584 v 26.4583 26.4583 26.4584 h -26.4584 -26.4583 -26.4583 -26.4584 V 163.5125 137.0542 110.5959 84.1375 Z m 132.2917,0 h 26.4583 v 26.4583 26.4584 26.4583 26.4583 26.4584 h -26.4583 V 163.5125 137.0542 110.5959 84.1375 Z m 52.9167,0 h 26.4583 26.4583 26.4584 26.4583 v 26.4583 h -26.4583 -26.4584 -26.4583 v 26.4584 26.4583 l -26.4583,-26.4583 V 84.1375 Z m 132.2916,0 h 26.4584 26.4583 26.4583 26.4584 v 26.4583 h -26.4584 -26.4583 -26.4583 -26.4584 z m -1296.45882,5e-4 h 26.4588 26.4579 26.4588 26.4583 v 26.4578 h -26.4583 -26.4588 -26.4579 v 26.4584 26.4583 26.4583 h 26.4579 26.4588 v -26.4583 -26.4583 h 26.4583 v 26.4583 26.4583 26.4584 h -26.4583 -26.4588 -26.4579 -26.4588 V 163.5125 137.0542 110.5959 84.1375 Z m 132.2917,0 h 26.4583 v 26.4578 26.4584 26.4583 26.4583 26.4584 h -26.4583 V 163.5125 137.0542 110.5959 84.1375 Z m 52.9171,0 h 26.4579 26.4583 26.4588 26.4579 v 26.4578 h -26.4579 -26.4588 -26.4583 v 26.4584 26.4583 l -26.4579,-26.4583 V 84.1375 Z m 132.2912,0 h 26.4583 26.4584 26.4583 26.4583 v 26.4578 h -26.4583 -26.4583 -26.4584 -26.4583 z m 132.2917,0 h 26.4583 26.4583 26.4584 26.4583 v 26.4578 h -26.4583 -26.4584 -26.4583 v 26.4584 26.4583 26.4583 h 26.4583 26.4584 26.4583 v 26.4584 h -26.4583 -26.4584 -26.4583 -26.4583 V 163.5125 137.0542 110.5959 84.1375 Z m 132.2916,0 h 26.4584 26.4583 26.4583 26.4584 v 26.4578 26.4584 26.4583 h -26.4584 V 110.5959 84.1375 h -26.4583 -26.4583 v 26.4584 26.4583 26.4583 26.4584 h -26.4584 V 163.5125 137.0542 110.5959 84.1375 Z m 132.2922,6e-4 h 26.4583 26.4584 26.4583 26.4583 v 26.4578 26.4583 26.4583 h -26.4583 V 110.5964 84.1381 h -26.4583 -26.4584 v 26.4583 26.4583 26.4578 26.4584 h -26.4583 V 163.5131 137.0553 110.5964 84.1381 Z m 740.83332,26.4572 v 26.4584 26.4583 26.4583 h 26.4584 26.4583 5.8208 v -26.4583 h -5.8208 -26.4583 v -26.4583 h 26.4583 5.8208 V 84.1375 h -5.8208 -26.4583 z M 733.42448,97.3672 h 26.4584 v 26.4578 h -26.4584 z m 132.2922,5e-4 h 26.4583 v 26.4579 h -26.4583 z m -833.438,13.2282 h 26.4588 26.4579 v 26.4588 h -26.4579 -26.4588 z m 119.0625,0 h 26.4588 v 26.4588 h -26.4588 z m 185.2088,0 h 26.4579 v 26.4588 h -26.4579 z m 39.6875,0 26.4579,26.4588 v 26.4578 26.4584 h -26.4579 -26.4588 -26.4583 -26.4579 v -26.4584 h 26.4579 26.4583 26.4588 v -26.4578 z m 92.6037,0 h 26.4583 v 26.4588 26.4578 26.4584 h -26.4583 v -26.4584 -26.4578 z m 145.5208,0 h 26.4584 26.4583 v 26.4588 h -26.4583 -26.4584 z m 396.87552,0 h 26.4584 26.4583 v 26.4583 h -26.4583 -26.4584 z m 119.0625,0 h 26.4584 v 26.4583 H 1130.3 Z m 185.2084,0 h 26.4583 v 26.4583 h -26.4583 z m 39.6875,0 26.4583,26.4583 v 26.4583 26.4584 h -26.4583 -26.4584 -26.4583 -26.4583 v -26.4584 h 26.4583 26.4583 26.4584 v -26.4583 z m 92.6041,0 h 26.4584 v 26.4583 26.4583 26.4584 H 1447.8 v -26.4584 -26.4583 z m -582.08332,26.4583 h 26.4583 l 39.6875,52.9167 h -26.4583 z m -132.2922,5e-4 h 26.4584 l 39.6875,52.9162 h -26.4584 z m 224.8959,79.374 h 26.4583 26.45832 26.4584 26.4583 v 26.4583 h -26.4583 -26.4584 -26.45832 v 26.4584 26.4583 26.4583 h 26.45832 26.4584 26.4583 v 26.4584 h -26.4583 -26.4584 -26.45832 -26.4583 V 322.262 295.8037 269.3454 242.887 Z m 132.29162,0 h 26.4584 26.4583 26.4583 26.4584 v 26.4583 h -26.4584 -26.4583 -26.4583 v 26.4584 26.4583 26.4583 h 26.4583 26.4583 v -26.4583 -26.4583 h 26.4584 v 26.4583 26.4583 26.4584 h -26.4584 -26.4583 -26.4583 -26.4584 V 322.262 295.8037 269.3454 242.887 Z m 132.2917,0 h 26.4583 v 26.4583 26.4584 26.4583 26.4583 26.4584 h -26.4583 V 322.262 295.8037 269.3454 242.887 Z m 52.9167,0 h 26.4583 26.4583 26.4584 26.4583 v 26.4583 h -26.4583 -26.4584 -26.4583 v 26.4584 26.4583 l -26.4583,-26.4583 V 242.887 Z m 132.2916,0 h 26.4584 26.4583 26.4583 26.4584 v 26.4583 h -26.4584 -26.4583 -26.4583 -26.4584 z m -1296.45832,5e-4 h 26.4583 26.4584 26.4583 26.4583 v 26.4583 h -26.4583 -26.4583 -26.4584 v 26.4584 26.4583 26.4583 h 26.4584 26.4583 v -26.4583 -26.4583 h 26.4583 v 26.4583 26.4583 26.4584 h -26.4583 -26.4583 -26.4584 -26.4583 v -26.4584 -26.4583 -26.4583 -26.4584 z m 132.2917,0 h 26.4583 v 26.4583 26.4584 26.4583 26.4583 26.4584 h -26.4583 v -26.4584 -26.4583 -26.4583 -26.4584 z m 52.9166,0 h 26.4584 26.4583 26.4583 26.4584 v 26.4583 h -26.4584 -26.4583 -26.4583 v 26.4584 26.4583 l -26.4584,-26.4583 v -26.4584 z m 132.2917,0 h 26.4583 26.4584 26.4583 26.4583 v 26.4583 h -26.4583 -26.4583 -26.4584 -26.4583 z m 132.2917,0 h 26.4583 26.4583 26.4584 26.4583 v 26.4583 h -26.4583 -26.4584 -26.4583 v 26.4584 26.4583 26.4583 h 26.4583 26.4584 26.4583 v 26.4584 h -26.4583 -26.4584 -26.4583 -26.4583 v -26.4584 -26.4583 -26.4583 -26.4584 z m 132.2916,0 h 26.4584 26.4583 26.4583 26.4584 v 26.4583 26.4584 26.4583 h -26.4584 v -26.4583 -26.4584 h -26.4583 -26.4583 v 26.4584 26.4583 26.4583 26.4584 h -26.4584 v -26.4584 -26.4583 -26.4583 -26.4584 z m 132.2917,0 h 26.4583 26.4584 26.4583 26.4583 v 26.4583 26.4584 26.4583 h -26.4583 v -26.4583 -26.4584 h -26.4583 -26.4584 v 26.4584 26.4583 26.4578 26.4584 h -26.4583 V 322.2625 295.8042 269.3459 242.8875 Z M 1566.862,242.887 v 26.4584 26.4583 26.4583 h 26.4584 26.4583 5.8213 v -26.4583 h -5.8213 -26.4583 v -26.4583 h 26.4583 5.8213 V 242.887 h -5.8213 -26.4583 z m -833.43752,13.2297 h 26.4584 v 26.4583 h -26.4584 z m 132.2917,0 h 26.4583 v 26.4583 h -26.4583 z m 145.52082,13.2287 h 26.4584 26.4583 v 26.4583 h -26.4583 -26.4584 z m 119.0625,0 h 26.4584 v 26.4583 h -26.4584 z m 185.2084,0 h 26.4583 v 26.4583 h -26.4583 z m 39.6875,0 26.4583,26.4583 v 26.4583 26.4584 h -26.4583 -26.4584 -26.4583 -26.4583 V 322.262 h 26.4583 26.4583 26.4584 v -26.4583 z m 92.6041,0 h 26.4584 v 26.4583 26.4583 26.4584 h -26.4584 V 322.262 295.8037 Z m -1415.52082,5e-4 h 26.4583 26.4584 v 26.4583 h -26.4584 -26.4583 z m 119.0625,0 h 26.4583 v 26.4583 h -26.4583 z m 185.2083,0 h 26.4584 v 26.4583 h -26.4584 z m 39.6875,0 26.4584,26.4583 v 26.4583 26.4584 h -26.4584 -26.4583 -26.4583 -26.4584 v -26.4584 h 26.4584 26.4583 26.4583 v -26.4583 z m 92.6042,0 h 26.4583 v 26.4583 26.4583 26.4584 h -26.4583 v -26.4584 -26.4583 z m 145.5208,0 h 26.4584 26.4583 v 26.4583 h -26.4583 -26.4584 z m 251.3542,26.4578 h 26.4583 l 39.6875,52.9167 h -26.4583 z m -132.2917,5e-4 h 26.4584 l 39.6875,52.9167 h -26.4584 z m -304.2708,79.3745 h 26.4583 26.4584 26.4583 26.4583 v 26.4583 h -26.4583 -26.4583 -26.4584 -26.4583 z m 978.95832,0 h 26.4584 26.4583 26.4583 26.4584 v 26.4583 h -26.4584 -26.4583 -26.4583 -26.4584 z M 720.19538,401.637 v 4.763 h 52.9166 v -4.763 h -26.4583 z m 846.66662,0 v 4.763 h 58.738 v -4.763 h -5.8213 -26.4583 z m -714.37502,5e-4 V 406.4 h 52.9167 v -4.7625 h -26.4583 z" />
  </g>
</svg>
