<?xml version="1.0" encoding="UTF-8" standalone="no"?>
<!-- Created with Inkscape (http://www.inkscape.org/) -->

<svg
   width="144"
   height="39.999023"
   viewBox="0 0 38.1 10.583075"
   version="1.1"
   id="svg1"
   inkscape:export-filename="verification_cover.svg"
   inkscape:export-xdpi="100"
   inkscape:export-ydpi="100"
   inkscape:version="1.3.2 (1:1.3.2+202311252150+091e20ef0f)"
   sodipodi:docname="cover.svg"
   xml:space="preserve"
   xmlns:inkscape="http://www.inkscape.org/namespaces/inkscape"
   xmlns:sodipodi="http://sodipodi.sourceforge.net/DTD/sodipodi-0.dtd"
   xmlns="http://www.w3.org/2000/svg"
   xmlns:svg="http://www.w3.org/2000/svg"><sodipodi:namedview
     id="namedview1"
     pagecolor="#ffffff"
     bordercolor="#666666"
     borderopacity="1.0"
     inkscape:showpageshadow="2"
     inkscape:pageopacity="0.0"
     inkscape:pagecheckerboard="0"
     inkscape:deskcolor="#d1d1d1"
     inkscape:document-units="px"
     inkscape:zoom="1.8101933"
     inkscape:cx="-30544.251"
     inkscape:cy="-5918.7048"
     inkscape:window-width="1868"
     inkscape:window-height="1016"
     inkscape:window-x="52"
     inkscape:window-y="27"
     inkscape:window-maximized="1"
     inkscape:current-layer="layer1"
     inkscape:export-bgcolor="#ffffff00" /><defs
     id="defs1" /><g
     inkscape:label="Layer 1"
     inkscape:groupmode="layer"
     id="layer1"
     transform="translate(9032.6104,2263.0959)"><path
       id="rect7-5"
       style="fill:#ffffff;stroke-width:1.10958"
       d="m -9032.6104,-2263.0961 v 2.4474 h 0.04 l 4.239,-2.4474 z m 4.6266,0 -4.239,2.4474 h 4.472 l 4.2391,-2.4474 z m 4.8193,0 -4.239,2.4474 h 4.2447 l 4.239,-2.4474 z m 4.592,0 -4.239,2.4474 h 4.4731 l 4.2385,-2.4474 z m 4.8204,0 -4.2391,2.4474 h 4.4726 l 4.2385,-2.4474 z m 4.8193,0 -4.2385,2.4474 h 4.4711 l 4.239,-2.4474 z m 4.8194,0 -4.2385,2.4474 h 4.2426 l 4.239,-2.4474 z m 4.5904,0 -4.239,2.4474 h 9.2516 v -1.0501 h -4.9067 v -0.1736 h 4.9067 v -1.2237 z m -33.0874,2.621 v 1.2294 h 4.9061 v 0.1741 h -4.9061 v 1.2294 h 4.9061 v 0.1737 h -4.9061 v 1.2299 h 4.9061 v 0.1736 h -4.9061 v 1.2294 h 28.6024 9.4976 v -1.2294 h -4.9067 v -0.1736 h 4.9067 v -1.2299 h -4.9067 v -0.1737 h 4.9067 v -1.2294 h -4.9067 v -0.1741 h 4.9067 v -1.2294 h -14.1423 v 5e-4 l -6e-4,-5e-4 h -4.8177 v 5e-4 l -5e-4,-5e-4 h -4.8183 v 5e-4 l -6e-4,-5e-4 z m 9.525,1.3476 h 0.5292 0.5291 0.5292 0.5291 v 0.5292 0.5292 0.5292 h -0.5291 v -0.5292 -0.5292 h -0.5292 -0.5291 v 0.5292 0.5292 0.5292 0.5291 h -0.5292 v -0.5291 -0.5292 -0.5292 -0.5292 z m 2.6458,0 h 0.5292 0.5291 0.5292 0.5292 v 0.5292 h -0.5292 -0.5292 -0.5291 v 0.5292 0.5292 0.5292 h 0.5291 0.5292 0.5292 v 0.5291 h -0.5292 -0.5292 -0.5291 -0.5292 v -0.5291 -0.5292 -0.5292 -0.5292 z m 2.6458,0 h 0.5292 0.5292 0.5292 0.5291 v 0.5292 h -0.5291 -0.5292 -0.5292 v 0.5292 0.5292 0.5292 h 0.5292 0.5292 v -0.5292 -0.5292 h 0.5291 v 0.5292 0.5292 0.5291 h -0.5291 -0.5292 -0.5292 -0.5292 v -0.5291 -0.5292 -0.5292 -0.5292 z m 2.6459,0 h 0.5292 v 0.5292 0.5292 0.5292 0.5292 0.5291 h -0.5292 v -0.5291 -0.5292 -0.5292 -0.5292 z m 1.0588,0 h 0.5287 0.5292 0.5296 0.5287 v 0.5292 h -0.5287 -0.5296 -0.5292 v 0.5292 0.5292 l -0.5287,-0.5292 v -0.5292 z m 2.6453,0 h 0.5297 0.5287 0.5291 0.5297 v 0.5292 h -0.5297 -0.5291 -0.5287 -0.5297 z m 2.6459,0 h 0.5292 0.5291 0.5292 0.5292 v 0.5292 h -0.5292 -0.5292 -0.5291 v 0.5292 0.5292 0.5292 h 0.5291 0.5292 0.5292 v 0.5291 h -0.5292 -0.5292 -0.5291 -0.5292 v -0.5291 -0.5292 -0.5292 -0.5292 z m 2.6458,0 h 0.5292 0.5291 0.5292 0.5292 v 0.5292 0.5292 0.5292 h -0.5292 v -0.5292 -0.5292 h -0.5292 -0.5291 v 0.5292 0.5292 0.5292 0.5291 h -0.5292 v -0.5291 -0.5292 -0.5292 -0.5292 z m -16.1396,0.7938 h 0.5292 v 0.5292 h -0.5292 z m 16.9334,0 h 0.5297 v 0.5292 h -0.5297 z m -14.023,0.2646 h 0.5292 0.5292 v 0.5292 h -0.5292 -0.5292 z m 2.3813,0 h 0.5292 v 0.5292 H -9017 Z m 3.7042,0 h 0.5297 v 0.5292 h -0.5297 z m 0.7942,0 0.5287,0.5292 v 0.5292 0.5291 h -0.5287 -0.5296 -0.5292 -0.5287 v -0.5291 h 0.5287 0.5292 0.5296 v -0.5292 z m 1.8516,0 h 0.5292 v 0.5292 0.5292 0.5291 h -0.5292 v -0.5291 -0.5292 z m 2.9104,0 h 0.5292 0.5292 v 0.5292 h -0.5292 -0.5292 z m -14.5521,0.5292 h 0.5292 l 0.7937,1.0583 h -0.5291 z m 16.9334,0 h 0.5297 l 0.7932,1.0583 h -0.5292 z m -27.2521,2.6779 v 1.001 h 4.9061 v 0.1736 h -4.9061 v 1.1746 h 5.1826 l 4.069,-2.3492 z m 9.5989,0 -4.0685,2.3492 h 4.2431 l 4.069,-2.3492 z m 4.5909,0 -4.069,2.3492 h 4.4731 l 4.0685,-2.3492 z m 4.8209,0 -4.069,2.3492 h 4.4716 l 4.0685,-2.3492 z m 4.8183,0 -4.0685,2.3492 h 4.4721 l 4.069,-2.3492 z m 4.8199,0 -4.0685,2.3492 h 4.2431 l 4.069,-2.3492 z m 4.5909,0 -4.069,2.3492 h 4.4736 l 4.069,-2.3492 z m 4.8209,0 -4.069,2.3492 h 4.1083 v -2.3492 z" /></g></svg>
