<?xml version="1.0" encoding="UTF-8" standalone="no"?>
<!-- Created with Inkscape (http://www.inkscape.org/) -->

<svg
   width="512"
   height="512"
   viewBox="0 0 512 512"
   version="1.1"
   id="svg1"
   inkscape:export-filename="register.svg"
   inkscape:export-xdpi="100"
   inkscape:export-ydpi="100"
   xmlns:inkscape="http://www.inkscape.org/namespaces/inkscape"
   xmlns:sodipodi="http://sodipodi.sourceforge.net/DTD/sodipodi-0.dtd"
   xmlns="http://www.w3.org/2000/svg"
   xmlns:svg="http://www.w3.org/2000/svg">
  <sodipodi:namedview
     id="namedview1"
     pagecolor="#ffffff"
     bordercolor="#666666"
     borderopacity="1.0"
     inkscape:showpageshadow="2"
     inkscape:pageopacity="0.0"
     inkscape:pagecheckerboard="0"
     inkscape:deskcolor="#d1d1d1"
     inkscape:document-units="px"
     inkscape:export-bgcolor="#ffffffce"
     inkscape:zoom="0.71777344"
     inkscape:cx="121.90476"
     inkscape:cy="266.79728"
     inkscape:window-width="1920"
     inkscape:window-height="991"
     inkscape:window-x="-9"
     inkscape:window-y="-9"
     inkscape:window-maximized="1"
     inkscape:current-layer="layer1"
     showguides="false" />
  <defs
     id="defs1" />
  <g
     inkscape:label="Layer 1"
     inkscape:groupmode="layer"
     id="layer1">
    <path
       id="rect44"
       style="opacity:1;fill:#000000;fill-opacity:1;stroke:none;stroke-width:0;stroke-linecap:round;stroke-linejoin:round;stroke-dasharray:none;stroke-opacity:1"
       d="M 0,0 V 512 H 512 V 0 Z m 256,81 a 50,50 0 0 1 50,50 h 90.625 c 5.1937,0 9.375,4.18127 9.375,9.375 v 281.25 c 0,4.54453 -3.20271,8.31226 -7.48242,9.18359 C 397.9062,430.933 397.27422,431 396.625,431 H 115.375 C 110.18127,431 106,426.81873 106,421.625 v -281.25 c 0,-5.19373 4.18127,-9.375 9.375,-9.375 H 206 a 50,50 0 0 1 50,-50 z m 0,25 a 25,25 0 0 0 -25,25 h 50 a 25,25 0 0 0 -25,-25 z m -131.25,43.75 v 262.5 h 262.5 V 149.75 Z M 256,168.5 a 37.5,37.5 0 0 1 37.5,37.5 37.5,37.5 0 0 1 -37.5,37.5 75,75 0 0 1 75,75 H 181 a 75,75 0 0 1 75,-75 A 37.5,37.5 0 0 1 218.5,206 37.5,37.5 0 0 1 256,168.5 Z m 84.375,0 c 2.59683,0 4.6875,2.09062 4.6875,4.6875 v 18.75 h 18.75 c 2.59683,0 4.6875,2.09062 4.6875,4.6875 0,2.59688 -2.09067,4.6875 -4.6875,4.6875 h -18.75 v 18.75 c 0,2.59687 -2.09067,4.6875 -4.6875,4.6875 -2.59688,0 -4.6875,-2.09063 -4.6875,-4.6875 v -18.75 h -18.75 c -2.59688,0 -4.6875,-2.09062 -4.6875,-4.6875 0,-2.59688 2.09062,-4.6875 4.6875,-4.6875 h 18.75 v -18.75 c 0,-2.59688 2.09062,-4.6875 4.6875,-4.6875 z M 185.6875,330.35352 h 28.125 c 2.59683,0 4.6875,2.09067 4.6875,4.6875 0,2.59685 -2.09067,4.6875 -4.6875,4.6875 h -28.125 c -2.59688,0 -4.6875,-2.09065 -4.6875,-4.6875 0,-2.59683 2.09062,-4.6875 4.6875,-4.6875 z m 60.31641,0 h 80.30859 c 2.59683,0 4.6875,2.09067 4.6875,4.6875 0,2.59685 -2.09067,4.6875 -4.6875,4.6875 h -80.30859 c -2.59687,0 -4.6875,-2.09065 -4.6875,-4.6875 0,-2.59683 2.09063,-4.6875 4.6875,-4.6875 z m -60.31641,13.44531 h 46.875 c 2.59683,0 4.6875,2.09062 4.6875,4.6875 0,2.59683 -2.09067,4.6875 -4.6875,4.6875 h -46.875 c -2.59688,0 -4.6875,-2.09067 -4.6875,-4.6875 0,-2.59688 2.09062,-4.6875 4.6875,-4.6875 z m 60.31641,0 h 80.30859 c 2.59683,0 4.6875,2.09062 4.6875,4.6875 0,2.59683 -2.09067,4.6875 -4.6875,4.6875 h -80.30859 c -2.59687,0 -4.6875,-2.09067 -4.6875,-4.6875 0,-2.59688 2.09063,-4.6875 4.6875,-4.6875 z m -60.31641,13.43945 h 18.75 c 2.59683,0 4.6875,2.09063 4.6875,4.6875 0,2.59688 -2.09067,4.6875 -4.6875,4.6875 h -18.75 c -2.59688,0 -4.6875,-2.09062 -4.6875,-4.6875 0,-2.59687 2.09062,-4.6875 4.6875,-4.6875 z m 60.31641,0 h 80.30859 c 2.59683,0 4.6875,2.09063 4.6875,4.6875 0,2.59688 -2.09067,4.6875 -4.6875,4.6875 h -80.30859 c -2.59687,0 -4.6875,-2.09062 -4.6875,-4.6875 0,-2.59687 2.09063,-4.6875 4.6875,-4.6875 z m -60.31641,13.44531 h 28.125 c 2.59683,0 4.6875,2.09064 4.6875,4.6875 0,2.59687 -2.09067,4.6875 -4.6875,4.6875 h -28.125 c -2.59688,0 -4.6875,-2.09063 -4.6875,-4.6875 0,-2.59686 2.09062,-4.6875 4.6875,-4.6875 z m 60.31641,0 h 80.30859 c 2.59683,0 4.6875,2.09064 4.6875,4.6875 0,2.59687 -2.09067,4.6875 -4.6875,4.6875 h -80.30859 c -2.59687,0 -4.6875,-2.09063 -4.6875,-4.6875 0,-2.59686 2.09063,-4.6875 4.6875,-4.6875 z M 185.6875,384.125 h 28.125 c 2.59683,0 4.6875,2.09063 4.6875,4.6875 0,2.59687 -2.09067,4.6875 -4.6875,4.6875 h -28.125 c -2.59688,0 -4.6875,-2.09063 -4.6875,-4.6875 0,-2.59687 2.09062,-4.6875 4.6875,-4.6875 z m 60.31641,0 h 80.30859 c 2.59683,0 4.6875,2.09063 4.6875,4.6875 0,2.59687 -2.09067,4.6875 -4.6875,4.6875 h -80.30859 c -2.59687,0 -4.6875,-2.09063 -4.6875,-4.6875 0,-2.59687 2.09063,-4.6875 4.6875,-4.6875 z" />
  </g>
</svg>
