<?xml version="1.0" encoding="UTF-8" standalone="no"?>
<!-- Created with Inkscape (http://www.inkscape.org/) -->

<svg
   width="500.00003"
   height="499.99973"
   viewBox="0 0 132.29167 132.29159"
   version="1.1"
   id="svg1"
   inkscape:export-filename="verification_cover.svg"
   inkscape:export-xdpi="100"
   inkscape:export-ydpi="100"
   inkscape:version="1.3.2 (1:1.3.2+202311252150+091e20ef0f)"
   sodipodi:docname="cover.svg"
   xml:space="preserve"
   xmlns:inkscape="http://www.inkscape.org/namespaces/inkscape"
   xmlns:sodipodi="http://sodipodi.sourceforge.net/DTD/sodipodi-0.dtd"
   xmlns="http://www.w3.org/2000/svg"
   xmlns:svg="http://www.w3.org/2000/svg"><sodipodi:namedview
     id="namedview1"
     pagecolor="#ffffff"
     bordercolor="#666666"
     borderopacity="1.0"
     inkscape:showpageshadow="2"
     inkscape:pageopacity="0.0"
     inkscape:pagecheckerboard="0"
     inkscape:deskcolor="#d1d1d1"
     inkscape:document-units="px"
     inkscape:zoom="0.044194174"
     inkscape:cx="-17027.131"
     inkscape:cy="-45.254834"
     inkscape:window-width="1868"
     inkscape:window-height="1016"
     inkscape:window-x="52"
     inkscape:window-y="27"
     inkscape:window-maximized="1"
     inkscape:current-layer="layer1" /><defs
     id="defs1" /><g
     inkscape:label="Layer 1"
     inkscape:groupmode="layer"
     id="layer1"
     transform="translate(4831.5562,-1005.4167)"><path
       id="rect44-6"
       style="fill:#ffffff;fill-opacity:1;stroke:none;stroke-width:0;stroke-linecap:round;stroke-linejoin:round;stroke-dasharray:none;stroke-opacity:1"
       d="m -4831.5561,1005.4167 v 132.2916 h 132.2916 v -132.2916 z m 66.1459,20.9289 a 12.919105,12.919105 0 0 1 12.919,12.9191 h 23.4159 c 1.3419,0 2.4224,1.0804 2.4224,2.4224 v 72.6699 c 0,1.1742 -0.8275,2.1478 -1.9333,2.3729 -0.158,0.032 -0.3213,0.049 -0.4891,0.049 h -72.67 c -1.3419,0 -2.4222,-1.0804 -2.4222,-2.4223 v -72.6701 c 0,-1.3419 1.0803,-2.4223 2.4222,-2.4223 h 23.4159 a 12.919105,12.919105 0 0 1 12.9192,-12.9191 z m 0,6.4596 a 6.4595524,6.4595524 0 0 0 -6.4596,6.4595 h 12.9192 a 6.4595524,6.4595524 0 0 0 -6.4596,-6.4595 z m -33.9127,11.3042 v 67.8253 h 67.8253 v -67.8253 z m 33.9127,4.8446 a 9.6893287,9.6893287 0 0 1 9.6893,9.6894 9.6893287,9.6893287 0 0 1 -9.6893,9.6893 19.378657,19.378657 0 0 1 19.3786,19.3787 h -38.7573 a 19.378657,19.378657 0 0 1 19.3787,-19.3787 9.6893287,9.6893287 0 0 1 -9.6894,-9.6893 9.6893287,9.6893287 0 0 1 9.6894,-9.6894 z m 21.801,0 c 0.6709,0 1.2111,0.5402 1.2111,1.2112 v 4.8447 h 4.8447 c 0.6709,0 1.2111,0.5402 1.2111,1.2111 0,0.671 -0.5402,1.2112 -1.2111,1.2112 h -4.8447 v 4.8447 c 0,0.671 -0.5402,1.2112 -1.2111,1.2112 -0.671,0 -1.2112,-0.5402 -1.2112,-1.2112 v -4.8447 h -4.8447 c -0.671,0 -1.2111,-0.5402 -1.2111,-1.2112 0,-0.6709 0.5401,-1.2111 1.2111,-1.2111 h 4.8447 v -4.8447 c 0,-0.671 0.5402,-1.2112 1.2112,-1.2112 z m -39.9685,41.8201 h 7.267 c 0.6709,0 1.2111,0.5402 1.2111,1.2112 0,0.671 -0.5402,1.2111 -1.2111,1.2111 h -7.267 c -0.671,0 -1.2112,-0.5401 -1.2112,-1.2111 0,-0.671 0.5402,-1.2112 1.2112,-1.2112 z m 15.5847,0 h 20.7503 c 0.671,0 1.2111,0.5402 1.2111,1.2112 0,0.671 -0.5401,1.2111 -1.2111,1.2111 h -20.7503 c -0.671,0 -1.2113,-0.5401 -1.2113,-1.2111 0,-0.671 0.5403,-1.2112 1.2113,-1.2112 z m -15.5847,3.474 h 12.1116 c 0.671,0 1.2112,0.5402 1.2112,1.2112 0,0.671 -0.5402,1.2112 -1.2112,1.2112 h -12.1116 c -0.671,0 -1.2112,-0.5402 -1.2112,-1.2112 0,-0.671 0.5402,-1.2112 1.2112,-1.2112 z m 15.5847,0 h 20.7503 c 0.671,0 1.2111,0.5402 1.2111,1.2112 0,0.671 -0.5401,1.2112 -1.2111,1.2112 h -20.7503 c -0.671,0 -1.2113,-0.5402 -1.2113,-1.2112 0,-0.671 0.5403,-1.2112 1.2113,-1.2112 z m -15.5847,3.4726 h 4.8446 c 0.671,0 1.2112,0.5401 1.2112,1.2111 0,0.671 -0.5402,1.2112 -1.2112,1.2112 h -4.8446 c -0.671,0 -1.2112,-0.5402 -1.2112,-1.2112 0,-0.671 0.5402,-1.2111 1.2112,-1.2111 z m 15.5847,0 h 20.7503 c 0.671,0 1.2111,0.5401 1.2111,1.2111 0,0.671 -0.5401,1.2112 -1.2111,1.2112 h -20.7503 c -0.671,0 -1.2113,-0.5402 -1.2113,-1.2112 0,-0.671 0.5403,-1.2111 1.2113,-1.2111 z m -15.5847,3.474 h 7.267 c 0.6709,0 1.2111,0.5402 1.2111,1.2111 0,0.671 -0.5402,1.2112 -1.2111,1.2112 h -7.267 c -0.671,0 -1.2112,-0.5402 -1.2112,-1.2112 0,-0.6709 0.5402,-1.2111 1.2112,-1.2111 z m 15.5847,0 h 20.7503 c 0.671,0 1.2111,0.5402 1.2111,1.2111 0,0.671 -0.5401,1.2112 -1.2111,1.2112 h -20.7503 c -0.671,0 -1.2113,-0.5402 -1.2113,-1.2112 0,-0.6709 0.5403,-1.2111 1.2113,-1.2111 z m -15.5847,3.473 h 7.267 c 0.6709,0 1.2111,0.5402 1.2111,1.2112 0,0.6709 -0.5402,1.2111 -1.2111,1.2111 h -7.267 c -0.671,0 -1.2112,-0.5402 -1.2112,-1.2111 0,-0.671 0.5402,-1.2112 1.2112,-1.2112 z m 15.5847,0 h 20.7503 c 0.671,0 1.2111,0.5402 1.2111,1.2112 0,0.6709 -0.5401,1.2111 -1.2111,1.2111 h -20.7503 c -0.671,0 -1.2113,-0.5402 -1.2113,-1.2111 0,-0.671 0.5403,-1.2112 1.2113,-1.2112 z" /></g></svg>
