<?xml version="1.0" encoding="UTF-8" standalone="no"?>
<!-- Created with Inkscape (http://www.inkscape.org/) -->

<svg
   width="144"
   height="40"
   viewBox="0 0 38.1 10.583333"
   version="1.1"
   id="svg1"
   inkscape:export-filename="verification_cover.svg"
   inkscape:export-xdpi="100"
   inkscape:export-ydpi="100"
   inkscape:version="1.3.2 (1:1.3.2+202311252150+091e20ef0f)"
   sodipodi:docname="cover.svg"
   xml:space="preserve"
   xmlns:inkscape="http://www.inkscape.org/namespaces/inkscape"
   xmlns:sodipodi="http://sodipodi.sourceforge.net/DTD/sodipodi-0.dtd"
   xmlns="http://www.w3.org/2000/svg"
   xmlns:svg="http://www.w3.org/2000/svg"><sodipodi:namedview
     id="namedview1"
     pagecolor="#ffffff"
     bordercolor="#666666"
     borderopacity="1.0"
     inkscape:showpageshadow="2"
     inkscape:pageopacity="0.0"
     inkscape:pagecheckerboard="0"
     inkscape:deskcolor="#d1d1d1"
     inkscape:document-units="px"
     inkscape:zoom="2.56"
     inkscape:cx="-28341.406"
     inkscape:cy="-7479.6875"
     inkscape:window-width="1868"
     inkscape:window-height="1016"
     inkscape:window-x="52"
     inkscape:window-y="27"
     inkscape:window-maximized="1"
     inkscape:current-layer="layer1"
     inkscape:export-bgcolor="#ffffff00" /><defs
     id="defs1" /><g
     inkscape:label="Layer 1"
     inkscape:groupmode="layer"
     id="layer1"
     transform="translate(11146.711,3530.5845)"><path
       id="rect17"
       style="fill:#000000;stroke:none;stroke-width:0.0459064"
       d="m -11146.711,-3530.5844 v 5.1594 h 8.996 v 1.9844 h 10.186 v 3.4395 h 18.918 v -5.1593 h -8.731 -0.265 v -1.9844 h -9.922 -0.264 v -3.4396 z m 19.182,0 v 3.175 h 10.187 v 1.9844 h 8.731 v -5.1594 z m -9.657,3.9688 h 0.529 0.529 0.529 0.53 v 0.5291 0.5292 0.5292 h -0.53 v -0.5292 -0.5292 h -0.529 -0.529 v 0.5292 0.5292 0.5291 0.5292 h -0.529 v -0.5292 -0.5291 -0.5292 -0.5292 z m 2.646,0 h 0.529 0.529 0.529 0.529 v 0.5291 h -0.529 -0.529 -0.529 v 0.5292 0.5292 0.5291 h 0.529 0.529 0.529 v 0.5292 h -0.529 -0.529 -0.529 -0.529 v -0.5292 -0.5291 -0.5292 -0.5292 z m 2.646,0 h 0.529 0.529 0.529 0.529 v 0.5291 h -0.529 -0.529 -0.529 v 0.5292 0.5291 0.5292 h 0.529 0.529 v -0.5291 -0.5292 h 0.529 v 0.5291 0.5292 0.5292 h -0.529 -0.529 -0.529 -0.529 v -0.5292 -0.5291 -0.5292 -0.5292 z m 2.645,0 h 0.53 v 0.5291 0.5292 0.5292 0.5291 0.5292 h -0.53 v -0.5292 -0.5291 -0.5292 -0.5292 z m 1.059,0 h 0.529 0.529 0.529 0.529 v 0.5291 h -0.529 -0.529 -0.529 v 0.5292 0.5292 l -0.529,-0.5292 v -0.5292 z m 2.646,0 h 0.529 0.529 0.529 0.529 v 0.5291 h -0.529 -0.529 -0.529 -0.529 z m 2.645,0 h 0.53 0.529 0.529 0.529 v 0.5291 h -0.529 -0.529 -0.529 v 0.5292 0.5292 0.5291 h 0.529 0.529 0.529 v 0.5292 h -0.529 -0.529 -0.529 -0.53 v -0.5292 -0.5291 -0.5292 -0.5292 z m 2.646,0 h 0.529 0.53 0.529 0.529 v 0.5291 0.5292 0.5292 h -0.529 v -0.5292 -0.5292 h -0.529 -0.53 v 0.5292 0.5292 0.5291 0.5292 h -0.529 v -0.5292 -0.5291 -0.5292 -0.5292 z m -16.139,0.7937 h 0.529 v 0.5292 h -0.529 z m 16.933,0 h 0.529 v 0.5292 h -0.529 z m -14.023,0.2646 h 0.529 0.529 v 0.5292 h -0.529 -0.529 z m 2.381,0 h 0.53 v 0.5292 h -0.53 z m 3.705,0 h 0.529 v 0.5292 h -0.529 z m 0.793,0 0.529,0.5292 v 0.5291 0.5292 h -0.529 -0.529 -0.529 -0.529 v -0.5292 h 0.529 0.529 0.529 v -0.5291 z m 1.852,0 h 0.53 v 0.5292 0.5291 0.5292 h -0.53 v -0.5292 -0.5291 z m 2.911,0 h 0.529 0.529 v 0.5292 h -0.529 -0.529 z m -24.871,0.3969 v 5.1593 h 18.918 v -3.175 h -9.922 v 0 h -0.265 v 0 -0.2645 -1.7198 z m 10.319,0.1323 h 0.529 l 0.794,1.0583 h -0.53 z m 16.933,0 h 0.529 l 0.794,1.0583 h -0.529 z" /></g></svg>
