<?xml version="1.0" encoding="UTF-8" standalone="no"?>
<!-- Created with Inkscape (http://www.inkscape.org/) -->

<svg
   width="255.99609"
   height="40"
   viewBox="0 0 67.7323 10.583333"
   version="1.1"
   id="svg1"
   inkscape:export-filename="verification_cover.svg"
   inkscape:export-xdpi="100"
   inkscape:export-ydpi="100"
   inkscape:version="1.3.2 (1:1.3.2+202311252150+091e20ef0f)"
   sodipodi:docname="cover.svg"
   xml:space="preserve"
   xmlns:inkscape="http://www.inkscape.org/namespaces/inkscape"
   xmlns:sodipodi="http://sodipodi.sourceforge.net/DTD/sodipodi-0.dtd"
   xmlns="http://www.w3.org/2000/svg"
   xmlns:svg="http://www.w3.org/2000/svg"><sodipodi:namedview
     id="namedview1"
     pagecolor="#ffffff"
     bordercolor="#666666"
     borderopacity="1.0"
     inkscape:showpageshadow="2"
     inkscape:pageopacity="0.0"
     inkscape:pagecheckerboard="0"
     inkscape:deskcolor="#d1d1d1"
     inkscape:document-units="px"
     inkscape:zoom="1.8101934"
     inkscape:cx="-23851.043"
     inkscape:cy="-1200.9767"
     inkscape:window-width="1868"
     inkscape:window-height="1016"
     inkscape:window-x="52"
     inkscape:window-y="27"
     inkscape:window-maximized="1"
     inkscape:current-layer="layer1"
     inkscape:export-bgcolor="#ffffff00" /><defs
     id="defs1" /><g
     inkscape:label="Layer 1"
     inkscape:groupmode="layer"
     id="layer1"
     transform="translate(11690.615,2847.7471)"><path
       id="rect18"
       style="fill:#000000;stroke:none;stroke-width:0.0168585"
       d="m -11690.615,-2847.7472 v 5.1594 h 16.404 v 0.2646 0 1.7197 h 17.595 v 0 3.4396 h 33.734 v -5.1593 h -16.404 v -0.2646 -1.7198 h -17.595 v -0.2646 -3.175 z m 33.999,0 v 3.175 h 17.595 v 1.9844 h 16.139 v -5.1594 z m -17.066,3.9687 h 0.53 0.529 0.529 0.529 v 0.5292 0.5292 0.5291 h -0.529 v -0.5291 -0.5292 h -0.529 -0.529 v 0.5292 0.5291 0.5292 0.5292 h -0.53 v -0.5292 -0.5292 -0.5291 -0.5292 z m 2.646,0 h 0.529 0.53 0.529 0.529 v 0.5292 h -0.529 -0.529 -0.53 v 0.5292 0.5291 0.5292 h 0.53 0.529 0.529 v 0.5292 h -0.529 -0.529 -0.53 -0.529 v -0.5292 -0.5292 -0.5291 -0.5292 z m 2.646,0 h 0.529 0.529 0.53 0.529 v 0.5292 h -0.529 -0.53 -0.529 v 0.5292 0.5291 l -0.529,-0.5291 v -0.5292 z m 2.646,0 h 0.529 0.529 0.529 0.53 v 0.5292 h -0.53 -0.529 -0.529 v 0.5292 0.5291 0.5292 h 0.529 0.529 0.53 v 0.5292 h -0.53 -0.529 -0.529 -0.529 v -0.5292 -0.5292 -0.5291 -0.5292 z m 2.646,0 h 0.529 0.529 0.529 0.529 v 0.5292 h -0.529 -0.529 -0.529 -0.529 z m 2.646,0 h 0.529 0.529 0.529 v 0.5292 h -0.529 -0.529 v 0.5292 0.5291 0.5292 0.5292 h -0.529 v -0.5292 -0.5292 -0.5291 -0.5292 z m 1.587,0 h 0.529 v 0.5292 0.5292 0.5291 h -0.529 v -0.5291 -0.5292 z m 1.058,0 h 0.53 0.529 0.529 0.529 v 0.5292 0.5292 0.5291 0.5292 0.5292 h -0.529 v -0.5292 -0.5292 -0.5291 -0.5292 h -0.529 -0.529 v 0.5292 0.5291 0.5292 0.5292 h -0.53 v -0.5292 -0.5292 -0.5291 -0.5292 z m 2.646,0 h 0.529 0.53 0.529 0.529 v 0.5292 h -0.529 -0.529 -0.53 v 0.5292 0.5291 l -0.529,-0.5291 v -0.5292 z m 2.646,0 h 0.529 0.529 0.53 0.529 v 0.5292 h -0.529 -0.53 -0.529 v 0.5292 0.5291 l -0.529,-0.5291 v -0.5292 z m 2.646,0 h 0.529 v 0.5292 0.5292 0.5291 0.5292 0.5292 h -0.529 v -0.5292 -0.5292 -0.5291 -0.5292 z m 1.587,0 h 0.53 v 0.5292 0.5292 0.5291 0.5292 0.5292 h -0.53 v -0.5292 -0.5292 -0.5291 -0.5292 z m 1.059,0 h 0.529 0.529 0.529 0.529 v 0.5292 0.5292 0.5291 0.5292 0.5292 h -0.529 -0.529 -0.529 -0.529 v -0.5292 -0.5292 -0.5291 -0.5292 z m 2.646,0 h 0.529 0.529 0.529 0.529 v 0.5292 0.5292 0.5291 h -0.529 v -0.5291 -0.5292 h -0.529 -0.529 v 0.5292 0.5291 0.5292 0.5292 h -0.529 v -0.5292 -0.5292 -0.5291 -0.5292 z m 2.645,0 h 0.53 0.529 0.529 l 0.529,0.5292 v 0.5292 0.5291 0.5292 l -0.529,0.5292 h -0.529 -0.529 -0.53 v -0.5292 -0.5292 -0.5291 -0.5292 z m -6.879,0.5292 0.265,0.5292 v 0.5291 0.5292 0.5292 h -0.529 v -0.5292 -0.5292 -0.5291 z m 2.117,0 v 0.5292 0.5291 0.5292 h 0.529 0.529 v -0.5292 -0.5291 -0.5292 h -0.529 z m 5.292,0 v 0.5292 0.5291 0.5292 h 0.529 0.529 v -0.5292 -0.5291 -0.5292 h -0.529 z m -31.486,0.2646 h 0.529 v 0.5292 h -0.529 z m 29.104,0 h 0.529 v 0.5292 h -0.529 z m -26.193,0.2646 h 0.529 0.529 v 0.5291 h -0.529 -0.529 z m 2.381,0 h 0.529 v 0.5291 h -0.529 z m 0.794,0 0.529,0.5291 v 0.5292 0.5292 h -0.529 -0.53 -0.529 -0.529 v -0.5292 h 0.529 0.529 0.53 v -0.5292 z m 2.116,0 h 0.529 0.53 v 0.5291 h -0.53 -0.529 z m 2.381,0 h 0.53 v 0.5291 0.5292 0.5292 h -0.53 v -0.5292 -0.5292 z m 2.646,0 h 0.529 v 0.5291 h -0.529 z m 2.646,0 h 0.529 v 0.5291 h -0.529 z m 2.646,0 h 0.529 v 0.5291 h -0.529 z m 0.794,0 0.529,0.5291 v 0.5292 0.5292 h -0.529 -0.529 -0.53 -0.529 v -0.5292 h 0.529 0.53 0.529 v -0.5292 z m 1.852,0 h 0.529 v 0.5291 h -0.529 z m 0.794,0 0.529,0.5291 v 0.5292 0.5292 h -0.529 -0.53 -0.529 -0.529 v -0.5292 h 0.529 0.529 0.53 v -0.5292 z m 4.497,0 h 0.53 v 0.5291 h -0.53 z m 5.292,0 h 0.529 v 0.5291 h -0.529 z m -49.477,0.3969 v 5.1593 h 33.734 v -3.175 h -17.594 v -0.2646 -1.7197 z m 17.727,0.1322 h 0.529 l 0.794,1.0584 h -0.529 z m 29.104,0 h 0.529 l 0.794,1.0584 h -0.529 z" /></g></svg>
