<?xml version="1.0" encoding="UTF-8" standalone="no"?>
<!-- Created with Inkscape (http://www.inkscape.org/) -->

<svg
   width="6144"
   height="1536"
   viewBox="0 0 1625.6 406.4"
   version="1.1"
   id="svg1"
   inkscape:export-filename="reset_password_cover.svg"
   inkscape:export-xdpi="100"
   inkscape:export-ydpi="100"
   inkscape:version="1.3.2 (091e20e, 2023-11-25, custom)"
   sodipodi:docname="cover.svg"
   xmlns:inkscape="http://www.inkscape.org/namespaces/inkscape"
   xmlns:sodipodi="http://sodipodi.sourceforge.net/DTD/sodipodi-0.dtd"
   xmlns="http://www.w3.org/2000/svg"
   xmlns:svg="http://www.w3.org/2000/svg">
  <sodipodi:namedview
     id="namedview1"
     pagecolor="#ffffff"
     bordercolor="#666666"
     borderopacity="1.0"
     inkscape:showpageshadow="2"
     inkscape:pageopacity="0.0"
     inkscape:pagecheckerboard="0"
     inkscape:deskcolor="#d1d1d1"
     inkscape:document-units="px"
     inkscape:zoom="0.04"
     inkscape:cx="-1050"
     inkscape:cy="-5087.5"
     inkscape:window-width="1920"
     inkscape:window-height="991"
     inkscape:window-x="-9"
     inkscape:window-y="-9"
     inkscape:window-maximized="1"
     inkscape:current-layer="layer1" />
  <defs
     id="defs1" />
  <g
     inkscape:label="Layer 1"
     inkscape:groupmode="layer"
     id="layer1">
    <path
       id="rect12"
       style="fill:#000000;fill-opacity:1;stroke:none;stroke-width:0.219837;stroke-linecap:round;stroke-linejoin:round;stroke-dasharray:none"
       d="M 22.0938,0 45.5094,31.22083 H 19.0506 L 0,5.82032 v 51.85885 h 19.0511 26.4583 v 26.45833 26.45833 26.45834 H 19.0511 V 110.59583 84.1375 H 0 V 97.36667 H 5.8219 V 123.825 H 0 v 13.22917 h 5.8219 l 39.6875,52.91666 H 19.0511 L 0,164.56928 v 51.85989 h 19.0506 26.4588 v 26.45833 26.45833 26.45834 H 19.0506 V 269.34583 242.8875 H 0 v 13.22917 H 5.8219 V 282.575 H 0 v 13.22917 h 5.8219 l 39.6875,52.91666 H 19.0506 L 0,323.32032 v 51.85885 H 19.0511 45.5094 V 401.6375 406.4 h 26.4583 v -4.7625 -26.45833 h 26.4584 26.4583 26.4583 26.4584 V 401.6375 H 151.3427 124.8844 98.4261 V 406.4 h 105.8333 v -4.7625 -26.45833 h 26.4583 26.4584 26.4583 26.4578 V 401.6375 H 283.6344 257.1761 230.7177 V 406.4 h 105.8329 v -4.7625 -26.45833 h 26.4583 26.4583 26.4584 26.4583 V 401.6375 H 415.9256 389.4672 363.0089 V 406.4 H 654.05 v -4.7625 -26.45833 h 26.4584 26.4583 26.4583 26.4584 V 401.6375 406.4 h 26.4583 v -4.7625 -26.45833 h 26.4583 26.4584 26.4578 26.4583 V 401.6375 406.4 h 26.4589 v -4.7625 -26.45833 h 26.4583 26.4583 26.4584 26.4583 V 401.6375 H 998.0084 971.55 945.0917 V 406.4 h 105.8333 v -4.7625 -26.45833 h 26.4584 26.4583 26.4583 26.4584 V 401.6375 H 1130.3 1103.8417 1077.3834 V 406.4 h 105.8333 v -4.7625 -26.45833 h 26.4583 V 401.6375 406.4 h 24.0771 l 2.3813,-4.7625 2.3812,4.7625 h 24.0771 v -4.7625 -26.45833 H 1289.05 V 401.6375 406.4 h 26.4584 v -4.7625 -26.45833 h 26.4583 26.4583 26.4584 26.4583 V 401.6375 406.4 H 1447.8 v -4.7625 -26.45833 h 26.4584 26.4583 26.4583 26.4584 V 401.6375 406.4 h 26.4583 v -4.76198 -26.45834 h 26.4583 19.05 v -26.45885 h -19.0505 -26.4578 V 322.2625 295.80468 269.34635 242.88802 216.42968 h 26.4578 19.0505 v -26.45885 h -19.05 -26.4583 V 163.5125 137.05468 110.59635 84.13802 57.67968 h 26.4583 19.05 V 31.22083 h -19.0505 -26.4578 V 4.7625 0 h -49.8745 l 23.4157,31.22083 h -26.4584 L 1503.7589,0 h -29.501 v 4.7625 26.45833 h -26.4584 V 4.7625 0 h -26.4578 v 4.7625 26.45833 h -26.4588 -26.4584 -26.4578 -26.4588 V 4.7625 0 h -26.4584 v 4.7625 26.45833 h -26.4578 V 4.7625 0 h -13.2297 v 4.7625 26.45833 h -26.4578 V 4.7625 0 h -13.2297 v 4.7625 26.45833 h -26.4578 V 4.7625 0 h -26.4588 v 4.7625 26.45833 h -26.4584 -26.4578 -26.4588 -26.4584 V 4.7625 h 26.4584 26.4588 26.4578 V 0 H 1024.4667 V 4.7625 31.22083 H 998.0079 971.5495 945.0917 918.6329 V 4.7625 h 26.4588 26.4578 26.4584 V 0 H 892.174 V 4.7625 31.22083 H 865.7157 V 4.7625 0 H 812.7995 V 4.7625 31.22083 H 786.3417 V 4.7625 0 H 680.5079 V 4.7625 31.22083 H 654.0495 V 4.7625 0 H 534.9875 V 4.7625 31.22083 H 508.5292 V 4.7625 0 H 363.0084 v 4.7625 h 26.4583 26.4583 26.4584 V 31.22083 H 415.925 389.4667 363.0084 336.55 V 4.7625 0 H 310.0927 V 4.7625 31.22083 H 283.6354 257.1766 230.7183 204.2604 V 4.7625 h 26.4579 26.4583 26.4578 V 0 H 98.4256 v 4.7625 h 26.4588 26.4578 26.4584 V 31.22083 H 151.3422 124.8844 98.4256 71.9672 V 4.7625 0 Z m 1319.8729,0 v 4.7625 h 26.4578 26.4584 V 0 Z m 264.5828,0 V 4.7625 H 1625.6 V 0 Z M 71.9677,57.67917 h 26.4584 26.4583 26.4583 26.4584 V 84.1375 H 151.3427 124.8844 98.4261 v 26.45833 26.45834 26.45833 h 26.4583 26.4583 26.4584 v 26.45833 H 151.3427 124.8844 98.4261 71.9677 V 163.5125 137.05417 110.59583 84.1375 Z m 132.2917,0 h 26.4583 26.4584 26.4583 26.4578 V 84.1375 h -26.4578 -26.4583 -26.4584 v 26.45833 26.45834 L 204.2594,110.59583 V 84.1375 Z m 132.2912,0 h 26.4583 26.4583 26.4584 26.4583 V 84.1375 h -26.4583 -26.4584 -26.4583 v 26.45833 26.45834 26.45833 h 26.4583 26.4584 26.4583 v 26.45833 H 415.9256 389.4672 363.0089 336.5506 V 163.5125 137.05417 110.59583 84.1375 Z m 132.2916,0 h 26.4584 26.4583 26.4583 26.4584 V 84.1375 h -26.4584 -26.4583 -26.4583 -26.4584 z m 185.2078,0 h 26.4584 26.4583 26.4583 26.4584 v 26.45833 26.45833 26.45834 H 733.425 V 110.59583 84.1375 h -26.4583 -26.4583 v 26.45833 26.45834 26.45833 26.45833 H 654.05 V 163.5125 137.05417 110.59583 84.1375 Z m 132.2917,0 h 26.4583 26.4584 26.4578 26.4583 v 26.45833 26.45833 26.45834 26.45833 26.45833 H 865.7162 V 163.5125 137.05417 110.59583 84.1375 H 839.2584 812.8 v 26.45833 26.45834 26.45833 26.45833 H 786.3417 V 163.5125 137.05417 110.59583 84.1375 Z m 132.2917,0 h 26.4583 26.4583 26.4584 26.4583 V 84.1375 H 998.0084 971.55 945.0917 v 26.45833 26.45834 l -26.4578,-26.45834 h -5e-4 V 84.1375 Z m 132.2916,0 h 26.4584 26.4583 26.4583 26.4584 V 84.1375 h -26.4584 -26.4583 -26.4583 v 26.45833 26.45834 L 1050.925,110.59583 V 84.1375 Z m 132.2917,0 h 26.4583 v 26.45833 26.45833 26.45834 26.45833 26.45833 h -26.4583 V 163.5125 137.05417 110.59583 84.1375 Z m 79.375,0 h 26.4583 v 26.45833 26.45833 26.45834 26.45833 26.45833 h -26.4583 V 163.5125 137.05417 110.59583 84.1375 Z m 52.9167,0 h 26.4583 26.4583 26.4584 26.4583 v 26.45833 26.45833 26.45834 26.45833 26.45833 h -26.4583 -26.4584 -26.4583 -26.4583 V 163.5125 137.05417 110.59583 84.1375 Z m 132.2916,0 h 26.4584 26.4583 26.4583 26.4584 v 26.45833 26.45833 26.45834 H 1527.175 V 110.59583 84.1375 h -26.4583 -26.4583 v 26.45833 26.45834 26.45833 26.45833 H 1447.8 V 163.5125 137.05417 110.59583 84.1375 Z m -211.6666,26.45833 13.2291,26.45833 v 26.45834 26.45833 26.45833 h -26.4583 V 163.5125 137.05417 110.59583 Z m 105.8333,0 v 26.45833 26.45834 26.45833 h 26.4583 26.4584 V 137.05417 110.59583 84.1375 h -26.4584 z m 264.5833,5.2e-4 v 26.45833 26.45782 26.45833 h 19.05 v -26.45782 h -5.8208 V 110.59635 H 1625.6 V 84.13802 Z m -119.0625,13.22865 h 26.4584 V 123.825 h -26.4584 z M 124.8844,110.59583 h 26.4583 26.4584 v 26.45834 h -26.4584 -26.4583 z m 119.0625,0 h 26.4583 v 26.45834 h -26.4583 z m 39.6875,0 26.4578,26.45834 v 26.45833 26.45833 H 283.6344 257.1761 230.7177 204.2594 V 163.5125 h 26.4583 26.4584 26.4578 v -26.45833 h 5e-4 z m 105.8328,0 h 26.4584 26.4583 v 26.45834 h -26.4583 -26.4584 z m 119.0625,0 h 26.4584 v 26.45834 26.45833 26.45833 H 508.5297 V 163.5125 137.05417 Z m 185.2078,0 h 26.4584 v 26.45834 h -26.4584 z m 132.2912,0 h 26.4583 v 26.45834 h -26.4583 z m 132.2922,0 h 26.4583 v 26.45834 h -26.4583 z m 39.6875,0 26.4583,26.45834 v 26.45833 26.45833 H 998.0084 971.55 945.0917 918.6334 V 163.5125 h 26.4583 26.4583 26.4584 v -26.45833 z m 92.6041,0 h 26.4584 v 26.45834 h -26.4584 z m 39.6875,0 26.4579,26.45834 h 5e-4 v 26.45833 26.45833 H 1130.3 1103.8417 1077.3834 1050.925 V 163.5125 h 26.4584 26.4583 26.4583 v -26.45833 z m 224.8959,0 h 26.4583 v 26.45834 h -26.4583 z m 132.2916,26.45834 h 26.4584 l 39.6875,52.91666 h -26.4584 z m -1415.5203,79.375 h 26.4584 26.4588 26.4578 26.4584 V 242.8875 H 151.3422 124.8844 98.4256 v 26.45833 26.45834 26.45833 h 26.4588 26.4578 26.4584 v 26.45833 H 151.3422 124.8844 98.4256 71.9672 V 322.2625 295.80417 269.34583 242.8875 Z m 132.2922,0 h 26.4578 26.4584 26.4588 26.4573 v 26.45833 h -26.4573 -26.4588 -26.4584 v 26.45833 26.45834 L 204.2594,269.34583 V 242.8875 Z m 132.2906,0 h 26.4584 26.4583 26.4583 26.4584 V 242.8875 H 415.925 389.4667 363.0084 v 26.45833 26.45834 26.45833 h 26.4583 26.4583 26.4584 v 26.45833 H 415.925 389.4667 363.0084 336.55 V 322.2625 295.80417 269.34583 242.8875 Z m 132.2917,0 H 495.3 521.7584 548.2167 574.675 V 242.8875 H 548.2167 521.7584 495.3 468.8417 Z m 185.2078,0 h 26.4584 26.4588 26.4578 26.4584 v 26.45833 26.45833 26.45834 H 733.4245 V 269.34583 242.8875 h -26.4578 -26.4588 v 26.45833 26.45834 26.45833 26.45833 H 654.0495 V 322.2625 295.80417 269.34583 242.8875 Z m 132.2922,0 h 26.4578 26.4584 26.4578 26.4583 v 26.45833 26.45833 26.45834 26.45833 26.45833 H 865.7157 V 322.2625 295.80417 269.34583 242.8875 h -26.4578 -26.4584 v 26.45833 26.45834 26.45833 26.45833 H 786.3417 V 322.2625 295.80417 269.34583 242.8875 Z m 132.2912,0 h 26.4588 26.4578 26.4584 26.4588 v 26.45833 h -26.4588 -26.4584 -26.4578 v 26.45833 26.45834 l -26.4583,-26.45834 h -5e-4 V 242.8875 Z m 132.2916,0 h 26.4584 26.4588 26.4578 26.4584 v 26.45833 h -26.4584 -26.4578 -26.4588 v 26.45833 26.45834 l -26.4584,-26.45834 V 242.8875 Z m 132.2922,0 h 26.4578 v 26.45833 26.45833 26.45834 26.45833 26.45833 h -26.4578 V 322.2625 295.80417 269.34583 242.8875 Z m 79.375,0 h 26.4578 v 26.45833 26.45833 26.45834 26.45833 26.45833 h -26.4578 V 322.2625 295.80417 269.34583 242.8875 Z m 52.9162,0 h 26.4588 26.4578 26.4584 26.4588 v 26.45833 26.45833 26.45834 26.45833 26.45833 h -26.4588 -26.4584 -26.4578 -26.4588 V 322.2625 295.80417 269.34583 242.8875 Z m 132.2916,0 h 26.4584 26.4588 26.4578 26.4584 v 26.45833 26.45833 26.45834 h -26.4584 V 269.34583 242.8875 h -26.4578 -26.4588 v 26.45833 26.45834 26.45833 26.45833 h -26.4584 V 322.2625 295.80417 269.34583 242.8875 Z m -211.6666,26.45833 13.2291,26.45833 v 26.45834 26.45833 26.45833 h -26.4578 V 322.2625 295.80417 269.34583 Z m 105.8338,0 v 26.45833 26.45834 26.45833 h 26.4578 26.4584 V 295.80417 269.34583 242.8875 h -26.4584 z m 264.5828,5.2e-4 v 26.45833 26.45782 26.45833 H 1625.6 v -26.45782 h -5.8208 v -26.45833 h 5.8208 v -26.45833 z m -119.0625,13.22865 h 26.4584 V 282.575 H 1487.487 Z M 124.8844,269.34583 h 26.4578 26.4584 v 26.45834 h -26.4584 -26.4578 z m 119.0625,0 h 26.4578 v 26.45834 h -26.4578 z m 39.6875,0 26.4583,26.45834 v 26.45833 26.45833 H 283.6354 257.1766 230.7183 204.2604 V 322.2625 h 26.4579 26.4583 26.4578 v -26.45833 z m 105.8323,0 h 26.4583 26.4584 v 26.45834 H 415.925 389.4667 Z m 119.0625,0 h 26.4583 v 26.45834 26.45833 26.45833 H 508.5292 V 322.2625 295.80417 Z m 185.2078,0 h 26.4584 v 26.45834 H 693.737 Z m 132.2912,0 h 26.4583 v 26.45834 h -26.4583 z m 132.2922,0 h 26.4588 v 26.45834 h -26.4588 z m 39.6875,0 26.4588,26.45834 v 26.45833 26.45833 H 998.0079 971.5495 945.0917 918.6329 V 322.2625 h 26.4588 26.4578 26.4584 v -26.45833 z m 92.6041,0 h 26.4584 v 26.45834 h -26.4584 z m 39.6875,0 26.4578,26.45834 h 6e-4 v 26.45833 26.45833 h -26.4584 -26.4578 -26.4588 -26.4584 V 322.2625 h 26.4584 26.4588 26.4578 v -26.45833 z m 224.8959,0 h 26.4588 v 26.45834 h -26.4588 z m 132.2916,26.45834 h 26.4584 l 39.6875,52.91666 h -26.4584 z m -1018.6448,79.375 h 26.4584 26.4583 26.4583 26.4584 V 401.6375 H 548.2172 521.7589 495.3006 468.8422 Z M 0,401.6375 V 406.4 h 19.0511 v -4.7625 z m 680.5084,0 V 406.4 h 52.9166 v -4.7625 h -26.4583 z m 132.2916,0 V 406.4 h 52.9162 v -4.7625 h -26.4578 z m 529.1667,0 V 406.4 h 52.9167 v -4.7625 h -26.4584 z m 132.2917,0 V 406.4 h 52.9166 v -4.7625 h -26.4583 z m 132.2916,5.2e-4 V 406.4 h 19.05 v -4.76198 z" />
  </g>
</svg>
