<?xml version="1.0" encoding="UTF-8" standalone="no"?>
<!-- Created with Inkscape (http://www.inkscape.org/) -->

<svg
   width="199.99609"
   height="40"
   viewBox="0 0 52.915633 10.583333"
   version="1.1"
   id="svg1"
   inkscape:export-filename="verification_cover.svg"
   inkscape:export-xdpi="100"
   inkscape:export-ydpi="100"
   inkscape:version="1.3.2 (1:1.3.2+202311252150+091e20ef0f)"
   sodipodi:docname="cover.svg"
   xml:space="preserve"
   xmlns:inkscape="http://www.inkscape.org/namespaces/inkscape"
   xmlns:sodipodi="http://sodipodi.sourceforge.net/DTD/sodipodi-0.dtd"
   xmlns="http://www.w3.org/2000/svg"
   xmlns:svg="http://www.w3.org/2000/svg"><sodipodi:namedview
     id="namedview1"
     pagecolor="#ffffff"
     bordercolor="#666666"
     borderopacity="1.0"
     inkscape:showpageshadow="2"
     inkscape:pageopacity="0.0"
     inkscape:pagecheckerboard="0"
     inkscape:deskcolor="#d1d1d1"
     inkscape:document-units="px"
     inkscape:zoom="3.6203867"
     inkscape:cx="-44052.753"
     inkscape:cy="-10681.456"
     inkscape:window-width="1868"
     inkscape:window-height="1016"
     inkscape:window-x="52"
     inkscape:window-y="27"
     inkscape:window-maximized="1"
     inkscape:current-layer="layer1"
     inkscape:export-bgcolor="#ffffff00" /><defs
     id="defs1" /><g
     inkscape:label="Layer 1"
     inkscape:groupmode="layer"
     id="layer1"
     transform="translate(11243.337,2869.3152)"><path
       id="rect19"
       style="fill:#000000;stroke:none;stroke-width:0.0296448"
       d="m -11243.338,-2869.3153 v 5.1858 h 12.7 v 0 1.9579 h 13.864 v 3.4396 h 26.352 v -5.1858 h -12.7 v -0.2117 -1.7462 h -13.864 v -0.2117 -3.2279 z m 26.564,0 v 3.2279 h 13.864 v 1.9579 h 12.488 v -5.1858 z m 11.535,3.9688 0.635,1.0583 h -0.529 l -0.106,-0.1764 v 0.1764 0.5291 0.5292 0.5292 h -0.529 v -0.5292 -0.5292 -0.5291 -0.5292 -0.5291 z m -24.87,0 h 0.529 v 0.5291 0.5292 0.5291 l 0.529,0.7056 0.529,-0.7056 v -0.5291 -0.5292 -0.5291 h 0.53 v 0.5291 0.5292 0.5291 0 l -0.794,1.0584 h -0.529 l -0.794,-1.0584 v -0.5291 -0.5292 z m 2.646,0 h 0.529 0.529 0.529 0.529 v 0.5291 h -0.529 -0.529 -0.529 v 0.5292 0.5291 0.5292 h 0.529 0.529 0.529 v 0.5292 h -0.529 -0.529 -0.529 -0.529 v -0.5292 -0.5292 -0.5291 -0.5292 z m 2.646,0 h 0.529 0.529 0.529 0.529 v 0.5291 0.5292 0.5291 h -0.529 v -0.5291 -0.5292 h -0.529 -0.529 v 0.5292 0.5291 0.5292 0.5292 h -0.529 v -0.5292 -0.5292 -0.5291 -0.5292 z m 2.645,0 h 0.53 v 0.5291 0.5292 0.5291 0.5292 0.5292 h -0.53 v -0.5292 -0.5292 -0.5291 -0.5292 z m 1.059,0 h 0.529 0.529 0.529 l 0.529,0.5291 h -0.529 -0.529 -0.529 -0.529 z m 2.645,0 h 0.53 v 0.5291 0.5292 0.5291 0.5292 0.5292 h -0.53 v -0.5292 -0.5292 -0.5291 -0.5292 z m 1.588,0 h 0.529 0.529 l 0.529,0.5291 h -0.529 -0.529 -0.529 -0.529 z m 2.117,0 h 0.529 0.529 0.529 0.529 v 0.5291 0.5292 0.5291 0.5292 0.5292 h -0.529 v -0.5292 -0.5292 -0.5291 -0.5292 h -0.529 -0.529 v 0.5292 0.5291 0.5292 0.5292 h -0.529 v -0.5292 -0.5292 -0.5291 -0.5292 z m 2.645,0 h 0.53 0.529 0.529 0.529 v 0.5291 h -0.529 -0.529 -0.529 -0.53 z m 2.646,0 h 0.529 v 0.5291 0.5292 0.5291 0.5292 0.5292 h -0.529 v -0.5292 -0.5292 -0.5291 -0.5292 z m 1.058,0 h 0.53 0.529 0.529 0.529 v 0.5291 0.5292 0.5291 0.5292 0.5292 h -0.529 -0.529 -0.529 -0.53 v -0.5292 -0.5292 -0.5291 -0.5292 z m 4.234,0 h 0.529 v 0.5291 0.5292 0.5291 0.5292 0.5292 h -0.529 v 0 0 l -0.635,-1.0584 h 0.529 l 0.106,0.1764 v -0.1764 -0.5291 -0.5292 z m -3.704,0.5291 v 0.5292 0.5291 0.5292 h 0.529 0.529 v -0.5292 -0.5291 -0.5292 h -0.529 z m -13.229,0 h 0.529 v 0.5292 0.5291 0.5292 0.5292 h -0.529 v -0.5292 -0.5292 -0.5291 z m 3.704,0 h 0.529 v 0.5292 0.5291 0.5292 h 0.529 0.529 0.529 l -0.529,0.5292 h -0.529 -0.529 l -0.529,-0.5292 v -0.5292 -0.5291 z m -11.906,0.2646 h 0.529 v 0.5292 h -0.529 z m 5.291,0 h 0.529 v 0.5292 h -0.529 z m 10.054,0.2646 h 0.529 v 0.5291 h -0.529 z m 6.35,0 h 0.529 v 0.5291 h -0.529 z m -18.785,0 h 0.529 0.529 v 0.5291 h -0.529 -0.529 z m 6.35,0 h 0.529 0.529 l -0.529,0.5291 h -0.529 z m 8.731,0 h 0.529 v 0.5291 0.5292 0.5292 h -0.529 v -0.5292 -0.5292 z m -5.027,0 h 0.529 v 0.5291 h -0.529 z m -26.987,0.3704 v 5.1858 h 26.352 v -3.2279 h -13.864 v -0.2117 -1.7462 z m 19.314,0.1587 h 0.529 l 0.794,1.0584 h -0.529 z" /></g></svg>
