<?xml version="1.0" encoding="UTF-8" standalone="no"?>
<!-- Created with Inkscape (http://www.inkscape.org/) -->

<svg
   width="6144"
   height="1536"
   viewBox="0 0 1625.6 406.4"
   version="1.1"
   id="svg1"
   inkscape:export-filename="verification_cover.svg"
   inkscape:export-xdpi="100"
   inkscape:export-ydpi="100"
   inkscape:version="1.3.2 (091e20e, 2023-11-25, custom)"
   sodipodi:docname="cover.svg"
   xmlns:inkscape="http://www.inkscape.org/namespaces/inkscape"
   xmlns:sodipodi="http://sodipodi.sourceforge.net/DTD/sodipodi-0.dtd"
   xmlns="http://www.w3.org/2000/svg"
   xmlns:svg="http://www.w3.org/2000/svg">
  <sodipodi:namedview
     id="namedview1"
     pagecolor="#ffffff"
     bordercolor="#666666"
     borderopacity="1.0"
     inkscape:showpageshadow="2"
     inkscape:pageopacity="0.0"
     inkscape:pagecheckerboard="0"
     inkscape:deskcolor="#d1d1d1"
     inkscape:document-units="px"
     inkscape:zoom="0.04"
     inkscape:cx="-1050"
     inkscape:cy="-5087.5"
     inkscape:window-width="1920"
     inkscape:window-height="991"
     inkscape:window-x="-9"
     inkscape:window-y="-9"
     inkscape:window-maximized="1"
     inkscape:current-layer="layer1" />
  <defs
     id="defs1" />
  <g
     inkscape:label="Layer 1"
     inkscape:groupmode="layer"
     id="layer1">
    <path
       id="rect14"
       style="fill:#000000;fill-opacity:1;stroke:none;stroke-width:0.181888;stroke-linecap:round;stroke-linejoin:round;stroke-dasharray:none"
       d="m 0,0 v 216.42917 h 26.4584 v 26.45833 26.45833 26.45834 l 26.4583,35.27795 26.4588,-35.27795 V 269.34583 242.8875 216.42917 h 26.4584 v 26.45833 26.45833 26.45834 h -5e-4 L 66.1459,348.72083 H 39.6875 L 0,295.80417 v 79.37706 h 26.4584 v 26.45834 4.7604 h 52.9171 v -4.7604 -26.45834 h 26.4584 v 26.45834 4.7604 h 26.4583 v -4.7604 -26.45834 h 26.4583 26.4584 26.4583 26.4583 v 26.45834 h -26.4583 -26.4583 -26.4584 v 4.7604 h 105.8334 v -4.7604 -26.45834 h 26.4578 26.4588 26.4584 26.4578 v 26.45834 4.7604 h 26.4583 v -4.7604 -26.45834 h 26.4584 v 26.45834 4.7604 h 26.4583 v -4.7614 H 476.25 v 4.7614 h 105.8328 v -4.7604 -26.45834 h 26.4584 v 26.45834 4.7604 H 635 v -4.7604 -5e-4 -5e-4 h 5e-4 l 26.4573,-26.45734 h 26.4584 26.4583 l 26.4583,26.45834 h -26.4583 -26.4583 -26.4578 v 4.7604 h 105.8333 v -4.7604 -26.45834 h 26.4588 26.4584 26.4578 26.4583 v 26.45834 4.7604 h 158.75 v -4.7604 -26.45834 h 26.4584 v 26.45834 4.7604 h 26.4583 v -4.7604 -26.45834 h 26.4583 26.4584 26.4583 26.4583 v 26.45834 4.7604 h 26.4589 v -4.762 -26.45777 l 26.4583,-0.001 18.7327,31.2208 h 34.184 v -4.7604 -26.45834 h 26.4583 V 401.6396 406.4 h 26.4583 v -4.7625 -26.4583 h 26.4589 v 26.4583 4.7625 h 52.9167 v -4.7625 -26.4583 h 26.4588 v 26.4583 4.7625 h 26.4583 v -4.7625 -26.4583 h 26.4579 26.4588 26.4583 26.4579 v 26.4583 h -26.4579 -26.4583 -26.4588 V 406.4 h 105.8338 v -4.7625 -26.4583 H 1625.6 v -26.45834 h -11.6401 V 322.2625 295.80417 269.34583 242.8875 216.42917 H 1625.6 v -26.45679 h -11.6396 V 163.51405 137.05572 110.59738 84.13905 57.68072 H 1625.6 V 31.22238 h -11.6396 V 4.76405 0 h -105.8333 v 4.76405 h 26.4583 26.4578 26.4589 v 26.45833 h -26.4589 -26.4578 -26.4583 -26.4589 V 4.76405 0 h -42.7291 l -23.4167,31.22238 h -26.4588 L 1365.6469,0 h -42.7292 v 4.76147 26.45885 h -26.4583 v -5.2e-4 h -5e-4 L 1277.7272,0 h -34.1845 v 4.76043 26.45834 h -26.4583 V 4.76043 0 h -26.4589 v 4.76147 26.45885 h -26.4583 -26.4583 -26.4584 -26.4583 V 4.76198 0 h -26.4583 v 4.76147 26.45885 h -26.4584 V 4.76198 0 H 965.7297 V 4.7625 31.22032 H 939.2714 V 4.76198 0 H 873.1255 V 4.7625 31.22083 H 846.6672 V 4.7625 0 H 793.7511 V 4.7625 31.22032 H 767.2922 V 4.76198 0 H 661.4589 v 4.76198 h 26.4583 26.4583 26.4584 L 714.3755,31.22032 H 687.9172 661.4589 L 635.0005,4.7625 V 0 H 608.5417 V 4.76147 31.22032 H 582.0834 V 4.76198 0 H 476.2505 V 4.76147 31.22032 H 449.7922 V 4.7625 0 H 423.3339 V 4.76147 31.22032 H 396.8755 V 4.76198 0 h -49.8734 l 23.4151,31.22083 H 343.9594 L 320.5438,0 H 291.0422 V 4.7625 31.22032 H 264.5844 V 4.76198 0 H 158.7511 v 4.7625 h 26.4583 26.4583 26.4584 V 31.22032 H 211.6677 185.2094 158.7511 132.2927 V 4.76198 0 H 89.5615 L 66.1464,31.22032 H 39.688 L 16.2729,0 Z M 42.7313,0 52.9172,13.58108 63.1032,0 Z m 1068.5192,0 v 4.76198 h 26.4584 26.4583 V 0 Z m 280.8553,0 10.1874,13.58315 L 1412.4807,0 Z m -148.5631,57.67658 31.7505,52.9177 h -26.4583 l -5.2922,-8.82013 v 8.82013 26.45834 26.45833 26.45782 h -26.4583 V 163.51043 137.0521 110.59377 84.13543 57.67762 Z M 5e-4,57.67865 h 26.4584 v 26.45833 26.45834 26.45833 L 52.9172,172.3316 79.3761,137.05365 V 110.59532 84.13698 57.67865 h 26.4583 v 26.45833 26.45834 26.45833 h -5e-4 L 66.1464,189.97032 H 39.688 L 5e-4,137.05365 V 110.59532 84.13698 Z m 132.2922,0 h 26.4584 26.4583 26.4583 26.4584 v 26.45833 h -26.4584 -26.4583 -26.4583 v 26.45834 26.45833 26.45833 h 26.4583 26.4583 26.4584 v 26.45834 H 211.6677 185.2094 158.7511 132.2927 V 163.51198 137.05365 110.59532 84.13698 Z m 132.2917,0 h 26.4578 26.4589 26.4583 26.4578 v 26.45833 26.45834 26.45833 H 343.9594 V 110.59532 84.13698 h -26.4583 -26.4589 v 26.45834 26.45833 26.45833 26.45834 H 264.5844 V 163.51198 137.05365 110.59532 84.13698 Z m 132.2911,0 h 26.4584 v 26.45833 26.45834 26.45833 26.45833 26.45834 H 396.8755 V 163.51198 137.05365 110.59532 84.13698 Z m 52.9162,0 h 26.4583 26.4584 26.4583 l 26.4583,26.45833 h -26.4583 -26.4583 -26.4579 v 26.45782 26.45833 26.45782 26.45937 H 449.7922 V 163.5125 137.05417 110.59583 84.1375 l 13.2292,-5.2e-4 h -13.2297 z m 132.2917,0 h 26.4583 v 26.45833 26.45834 26.45833 26.45833 26.45834 H 582.0834 V 163.51198 137.05365 110.59532 84.13698 Z m 79.375,0 h 26.4583 26.4583 l 26.4584,26.45833 H 714.375 687.9167 661.4584 635 Z m 105.8338,0 h 26.4589 26.4583 26.4578 26.4583 v 26.45833 26.45834 26.45833 26.45833 26.45834 H 846.6672 V 163.51198 137.05365 110.59532 84.13698 h -26.4578 -26.4583 v 26.45834 26.45833 26.45833 26.45834 H 767.2922 V 163.51198 137.05365 110.59532 84.13698 Z m 132.2917,0 h 26.4583 26.4583 26.4584 26.4583 v 26.45833 h -26.4583 -26.4584 -26.4583 -26.4583 z m 132.2916,0 h 26.4584 v 26.45833 26.45834 26.45833 26.45833 26.45834 h -26.4584 V 163.51198 137.05365 110.59532 84.13698 Z m 52.9167,0 h 26.4583 26.4584 26.4583 26.4583 v 26.45833 26.45834 26.45833 26.45833 26.45834 h -26.4583 -26.4583 -26.4584 -26.4583 V 163.51198 137.05365 110.59532 84.13698 Z m 211.6672,0 h 26.4583 v 26.45833 26.45834 26.45833 26.45833 26.45834 h -26.4583 v -5.2e-4 h -5e-4 l -31.749,-52.91615 h 26.4583 l 5.2912,8.81858 v -8.81858 -26.45833 -26.45834 z m 52.9167,0.002 h 26.4588 v 26.45833 26.45833 26.45834 l 26.4583,35.27795 26.4589,-35.27795 V 110.59731 84.13898 57.68065 h 26.4583 v 26.45833 26.45833 26.45834 h -5e-4 l -39.6875,52.91666 h -26.4588 l -39.6875,-52.91666 V 110.59731 84.13898 Z m 132.2921,0 h 26.4589 26.4583 26.4578 26.4589 v 26.45833 h -26.4589 -26.4578 -26.4583 v 26.45833 26.45834 26.45833 h 26.4583 26.4578 26.4589 v 26.45833 h -26.4589 -26.4578 -26.4583 -26.4589 V 163.51398 137.05565 110.59731 84.13898 Z m -370.4177,26.45626 v 26.45834 26.45833 26.45833 h 26.4584 26.4583 V 137.05358 110.59525 84.13691 h -26.4583 z m -476.25,5.2e-4 26.4584,5.2e-4 v 26.45833 26.45833 26.4573 h 26.4583 26.4583 26.4584 l -26.4584,26.45834 H 687.9172 661.4589 L 635.0005,163.5125 V 137.05417 110.59583 Z M 66.1464,97.36615 V 123.825 H 39.688 V 97.36667 Z m 264.5838,0 V 123.825 H 304.2719 V 97.36667 Z m 1084.7922,0.002 V 123.827 h -26.4588 V 97.36866 Z m -1230.313,13.22761 h 26.4583 26.4584 v 26.45834 h -26.4584 -26.4583 z m 317.499,0 h 26.4583 26.4583 l -26.4583,26.45834 h -26.4583 z m 304.2713,0 h 26.4583 v 26.45834 h -26.4583 z m 132.2917,0 h 26.4583 v 26.45834 26.45833 26.45833 H 939.2714 V 163.5125 137.05417 Z m 185.2083,0 h 26.4583 v 26.45834 h -26.4583 z m -436.563,5.2e-4 h 26.4583 v 26.45833 h -26.4583 z m 846.6687,0.002 h 26.4578 26.4589 v 26.45833 h -26.4589 -26.4578 z m -1230.3135,26.4564 h 26.4583 l 39.687,52.91667 h -26.4578 z m 939.2703,79.37242 31.7505,52.91718 h -26.4583 l -5.2922,-8.82013 v 8.82013 26.45834 26.45833 26.45833 h -26.4583 v -26.45833 -26.45833 -26.45834 -26.45833 -26.45782 z m -1111.25,0.002 h 26.4583 26.4584 26.4583 26.4583 v 26.45833 h -26.4583 -26.4583 -26.4584 v 26.45833 26.45834 26.45833 h 26.4584 26.4583 26.4583 v 26.45833 H 211.6672 185.2089 158.7505 132.2922 V 322.2625 295.80417 269.34583 242.8875 Z m 132.2917,0 h 26.4578 26.4588 26.4584 26.4578 v 26.45833 26.45833 26.45834 h -26.4578 v -26.45834 -26.45833 h -26.4584 -26.4588 v 26.45833 26.45834 26.45833 26.45833 H 264.5839 V 322.2625 295.80417 269.34583 242.8875 Z m 132.2911,0 h 26.4584 v 26.45833 26.45833 26.45834 26.45833 26.45833 H 396.875 V 322.2625 295.80417 269.34583 242.8875 Z m 52.9162,0 h 26.4583 26.4583 26.4584 l 26.4583,26.45833 H 529.1662 502.7078 476.25 v 26.4573 26.45833 26.45782 26.45988 h -26.4583 v -26.45781 -26.45834 -26.45833 -26.45833 l 8.8196,-5.2e-4 h -8.8201 z m 132.2916,0 h 26.4584 v 26.45833 26.45833 26.45834 26.45833 26.45833 H 582.0828 V 322.2625 295.80417 269.34583 242.8875 Z m 79.375,0 h 26.4584 26.4583 l 26.4583,26.45833 h -26.4583 -26.4583 -26.4578 v 26.4573 26.45833 26.45937 h 26.4583 26.4583 26.4584 l -26.4584,26.4584 H 687.9167 661.4584 L 635,322.26302 v -26.45834 -26.45833 -26.45833 l 8.8196,-5.2e-4 h -8.8201 z m 105.8339,0 h 26.4588 26.4584 26.4578 26.4583 v 26.45833 26.45833 26.45834 26.45833 26.45833 H 846.6667 V 322.2625 295.80417 269.34583 242.8875 h -26.4578 -26.4584 v 26.45833 26.45834 26.45833 26.45833 H 767.2917 V 322.2625 295.80417 269.34583 242.8875 Z m 132.2917,0 h 26.4583 26.4583 26.4584 26.4583 v 26.45833 H 978.9584 952.5 926.0417 899.5834 Z m 132.2916,0 h 26.4584 v 26.45833 26.45833 26.45834 26.45833 26.45833 H 1031.875 V 322.2625 295.80417 269.34583 242.8875 Z m 52.9167,0 h 26.4583 26.4584 26.4583 26.4583 v 26.45833 26.45833 26.45834 26.45833 26.45833 h -26.4583 -26.4583 -26.4584 -26.4583 V 322.2625 295.80417 269.34583 242.8875 Z m 211.6672,0 h 26.4583 v 26.45833 26.45833 26.45834 26.45833 26.45833 h -26.4583 v -5.1e-4 h -5e-4 l -31.749,-52.91615 h 26.4583 l 5.2912,8.81858 v -8.81858 -26.45834 -26.45833 z m 52.9166,0 h 26.4589 v 26.45833 26.45833 26.45834 l 26.4583,35.27795 26.4584,-35.27795 V 269.34583 242.8875 216.42917 h 26.4588 v 26.45833 26.45833 26.45834 h -5e-4 l -39.6875,52.91666 h -26.4589 l -39.6875,-52.91666 V 269.34583 242.8875 Z m 132.2927,0 h 26.4579 26.4588 26.4583 26.4579 v 26.45833 h -26.4579 -26.4583 -26.4588 v 26.45833 26.45834 26.45833 h 26.4588 26.4583 26.4579 v 26.45833 h -26.4579 -26.4583 -26.4588 -26.4579 V 322.2625 295.80417 269.34583 242.8875 Z M 1111.25,242.8875 v 26.45833 26.45834 26.45833 h 26.4584 26.4583 V 295.80417 269.34583 242.8875 h -26.4583 z M 66.1459,256.11615 V 282.575 H 39.6875 v -26.45833 z m 264.5838,0 V 282.575 h -26.4583 v -26.45833 z m 1084.7922,0 V 282.575 h -26.4589 v -26.45833 z m -1230.313,13.22968 h 26.4583 26.4583 v 26.45834 h -26.4583 -26.4583 z m 317.4989,0 h 26.4584 26.4583 l -26.4583,26.45834 h -26.4584 z m 304.2714,0 h 26.4583 v 26.45834 h -26.4583 z m 132.2917,0 h 26.4583 v 26.45834 26.45833 26.45833 H 939.2709 V 322.2625 295.80417 Z m 185.2083,0 h 26.4583 v 26.45834 h -26.4583 z m 410.1057,0 h 26.4583 26.4579 v 26.45834 h -26.4579 -26.4583 z m -846.6687,5.2e-4 h 26.4583 v 26.45833 h -26.4583 z m -383.6448,26.45782 h 26.4583 l 39.687,52.91666 h -26.4578 z m 171.9781,79.37551 h 26.4583 26.4584 l 26.4583,26.45829 h -26.4583 -26.4584 -26.4583 -26.4583 v -26.45674 z m 449.7922,0 h 26.4583 26.4584 26.4583 v 26.45829 H 978.9584 952.5 926.0417 899.5834 v -26.45674 z m 185.2083,26.45829 v 4.762 h 52.9167 v -4.762 h -26.4583 z m -820.2083,0 v 4.7604 h 52.9172 v -4.7604 h -26.4584 z m 502.7088,0 v 4.7604 h 52.9162 v -4.7604 h -26.4578 z" />
  </g>
</svg>
